ISO-10303-21;
HEADER;
FILE_DESCRIPTION (( 'STEP AP214' ),
    '1' );
FILE_NAME ('VLS252012CX(3Dmodel).STEP',
    '2018-07-04T08:29:09',
    ( '' ),
    ( '' ),
    'SwSTEP 2.0',
    'SolidWorks 2018',
    '' );
FILE_SCHEMA (( 'AUTOMOTIVE_DESIGN' ));
ENDSEC;

DATA;
#1 = ORIENTED_EDGE ( 'NONE', *, *, #605, .T. ) ;
#2 = DIRECTION ( 'NONE',  ( -1.000000000000000000, -0.0000000000000000000, -0.0000000000000000000 ) ) ;
#3 = FACE_OUTER_BOUND ( 'NONE', #554, .T. ) ;
#4 = PRESENTATION_LAYER_ASSIGNMENT (  '', '', ( #35 ) ) ;
#5 = EDGE_CURVE ( 'NONE', #931, #286, #151, .T. ) ;
#6 = CARTESIAN_POINT ( 'NONE',  ( -1.250000000000000222, 0.5900000000000003020, 2.459693845669907120 ) ) ;
#7 = VERTEX_POINT ( 'NONE', #706 ) ;
#8 = EDGE_CURVE ( 'NONE', #7, #632, #201, .T. ) ;
#9 = CARTESIAN_POINT ( 'NONE',  ( 0.0000000000000000000, 0.0000000000000000000, 1.000000000000000000 ) ) ;
#10 =( NAMED_UNIT ( * ) PLANE_ANGLE_UNIT ( ) SI_UNIT ( $, .RADIAN. ) );
#11 = DIRECTION ( 'NONE',  ( 0.0000000000000000000, 0.0000000000000000000, -1.000000000000000000 ) ) ;
#12 = VERTEX_POINT ( 'NONE', #930 ) ;
#13 = ORIENTED_EDGE ( 'NONE', *, *, #538, .T. ) ;
#14 = SURFACE_STYLE_FILL_AREA ( #248 ) ;
#15 = SURFACE_SIDE_STYLE ('',( #656 ) ) ;
#16 = LINE ( 'NONE', #911, #696 ) ;
#17 = FACE_OUTER_BOUND ( 'NONE', #454, .T. ) ;
#18 = PLANE ( 'NONE',  #748 ) ;
#19 = DIRECTION ( 'NONE',  ( 0.0000000000000000000, 1.000000000000000000, 0.0000000000000000000 ) ) ;
#20 = SURFACE_STYLE_USAGE ( .BOTH. , #25 ) ;
#21 = MECHANICAL_DESIGN_GEOMETRIC_PRESENTATION_REPRESENTATION (  '', ( #284 ), #503 ) ;
#22 = PRODUCT ( 'VLS252012CX(3Dmodel)', 'VLS252012CX(3Dmodel)', '', ( #270 ) ) ;
#23 = SURFACE_SIDE_STYLE ('',( #732 ) ) ;
#24 = ORIENTED_EDGE ( 'NONE', *, *, #605, .F. ) ;
#25 = SURFACE_SIDE_STYLE ('',( #209 ) ) ;
#26 = VERTEX_POINT ( 'NONE', #848 ) ;
#27 = FILL_AREA_STYLE ('',( #725 ) ) ;
#28 = VECTOR ( 'NONE', #86, 1000.000000000000000 ) ;
#29 = LINE ( 'NONE', #123, #626 ) ;
#30 = DIRECTION ( 'NONE',  ( -0.0000000000000000000, -0.0000000000000000000, -1.000000000000000000 ) ) ;
#31 = CARTESIAN_POINT ( 'NONE',  ( 0.4000000000000002998, -0.01000000000000000021, -0.9899999999999999911 ) ) ;
#32 = VERTEX_POINT ( 'NONE', #479 ) ;
#33 = DIRECTION ( 'NONE',  ( -1.000000000000000000, -1.275531967630005492E-16, -2.551063935260010984E-16 ) ) ;
#34 = PLANE ( 'NONE',  #797 ) ;
#35 = STYLED_ITEM ( 'NONE', ( #769 ), #633 ) ;
#36 = ORIENTED_EDGE ( 'NONE', *, *, #745, .F. ) ;
#37 = ORIENTED_EDGE ( 'NONE', *, *, #906, .F. ) ;
#38 = CARTESIAN_POINT ( 'NONE',  ( 0.4000000000000002998, 0.0000000000000000000, 0.9899999999999999911 ) ) ;
#39 = LINE ( 'NONE', #401, #592 ) ;
#40 = LINE ( 'NONE', #48, #783 ) ;
#41 = CARTESIAN_POINT ( 'NONE',  ( -1.249999999999999778, 0.8899999999999999023, 0.9900000000000002132 ) ) ;
#42 = VECTOR ( 'NONE', #741, 1000.000000000000000 ) ;
#43 = CARTESIAN_POINT ( 'NONE',  ( 0.4000000000000002442, 0.2900000000000000355, -0.9900000000000002132 ) ) ;
#44 = PRODUCT_RELATED_PRODUCT_CATEGORY ( 'part', '', ( #22 ) ) ;
#45 = CARTESIAN_POINT ( 'NONE',  ( -1.250000000000000000, 0.2899999999999999800, 0.9900000000000002132 ) ) ;
#46 = DIRECTION ( 'NONE',  ( -0.0000000000000000000, -1.000000000000000000, -0.0000000000000000000 ) ) ;
#47 = ORIENTED_EDGE ( 'NONE', *, *, #389, .F. ) ;
#48 = CARTESIAN_POINT ( 'NONE',  ( 1.250000000000000000, 1.189999999999999947, -0.9899999999999997691 ) ) ;
#49 = FACE_OUTER_BOUND ( 'NONE', #125, .T. ) ;
#50 = EDGE_CURVE ( 'NONE', #176, #32, #907, .T. ) ;
#51 = VECTOR ( 'NONE', #19, 1000.000000000000000 ) ;
#52 = VERTEX_POINT ( 'NONE', #139 ) ;
#53 = DIRECTION ( 'NONE',  ( 0.0000000000000000000, -0.0000000000000000000, -1.000000000000000000 ) ) ;
#54 = CARTESIAN_POINT ( 'NONE',  ( -1.250000000000000222, 0.2900000000000000355, 1.000000000000000000 ) ) ;
#55 = EDGE_CURVE ( 'NONE', #176, #714, #455, .T. ) ;
#56 = DIRECTION ( 'NONE',  ( 0.0000000000000000000, 0.0000000000000000000, 1.000000000000000000 ) ) ;
#57 =( NAMED_UNIT ( * ) SI_UNIT ( $, .STERADIAN. ) SOLID_ANGLE_UNIT ( ) );
#58 = ORIENTED_EDGE ( 'NONE', *, *, #194, .T. ) ;
#59 = ORIENTED_EDGE ( 'NONE', *, *, #103, .F. ) ;
#60 = CARTESIAN_POINT ( 'NONE',  ( -0.4000000000000002998, 0.0000000000000000000, -0.9899999999999999911 ) ) ;
#61 = CARTESIAN_POINT ( 'NONE',  ( -0.4000000000000001887, 0.0000000000000000000, 0.9900000000000002132 ) ) ;
#62 = PRESENTATION_STYLE_ASSIGNMENT (( #752 ) ) ;
#63 = DIRECTION ( 'NONE',  ( 1.000000000000000000, 7.174867317918781663E-17, 2.551063935260011477E-16 ) ) ;
#64 = ADVANCED_FACE ( 'NONE', ( #17 ), #861, .F. ) ;
#65 = CARTESIAN_POINT ( 'NONE',  ( 1.209453867849583197, 0.4886346696239570186, -0.9494538678495829664 ) ) ;
#66 = EDGE_CURVE ( 'NONE', #890, #813, #119, .T. ) ;
#67 = ADVANCED_FACE ( 'NONE', ( #225 ), #807, .F. ) ;
#68 = CARTESIAN_POINT ( 'NONE',  ( -1.249999999999999778, 1.189999999999999947, 0.9900000000000002132 ) ) ;
#69 = ORIENTED_EDGE ( 'NONE', *, *, #687, .F. ) ;
#70 = MECHANICAL_DESIGN_GEOMETRIC_PRESENTATION_REPRESENTATION (  '', ( #376 ), #83 ) ;
#71 = DIRECTION ( 'NONE',  ( 1.000000000000000000, -1.275531967630005492E-16, -2.551063935260010984E-16 ) ) ;
#72 = AXIS2_PLACEMENT_3D ( 'NONE', #764, #551, #846 ) ;
#73 = SURFACE_STYLE_FILL_AREA ( #166 ) ;
#74 = ORIENTED_EDGE ( 'NONE', *, *, #540, .T. ) ;
#75 = CARTESIAN_POINT ( 'NONE',  ( -1.249999999999999778, 0.8899999999999999023, 0.9900000000000002132 ) ) ;
#76 = UNCERTAINTY_MEASURE_WITH_UNIT (LENGTH_MEASURE( 1.000000000000000082E-05 ), #622, 'distance_accuracy_value', 'NONE');
#77 = ADVANCED_FACE ( 'NONE', ( #628 ), #870, .F. ) ;
#78 = CARTESIAN_POINT ( 'NONE',  ( 1.250000000000000000, 0.2899999999999999245, -1.000000000000000444 ) ) ;
#79 = ORIENTED_EDGE ( 'NONE', *, *, #735, .F. ) ;
#80 = ORIENTED_EDGE ( 'NONE', *, *, #726, .F. ) ;
#81 = DIRECTION ( 'NONE',  ( -1.275531967630005739E-16, -1.000000000000000000, 5.531738121516647547E-32 ) ) ;
#82 = ADVANCED_FACE ( 'NONE', ( #419 ), #92, .T. ) ;
#83 =( GEOMETRIC_REPRESENTATION_CONTEXT ( 3 ) GLOBAL_UNCERTAINTY_ASSIGNED_CONTEXT ( ( #651 ) ) GLOBAL_UNIT_ASSIGNED_CONTEXT ( ( #864, #10, #796 ) ) REPRESENTATION_CONTEXT ( 'NONE', 'WORKASPACE' ) );
#84 = SURFACE_STYLE_FILL_AREA ( #432 ) ;
#85 = FACE_OUTER_BOUND ( 'NONE', #106, .T. ) ;
#86 = DIRECTION ( 'NONE',  ( -1.807003620809173646E-16, 1.000000000000000000, 0.0000000000000000000 ) ) ;
#87 = ORIENTED_EDGE ( 'NONE', *, *, #524, .F. ) ;
#88 =( LENGTH_UNIT ( ) NAMED_UNIT ( * ) SI_UNIT ( .MILLI., .METRE. ) );
#89 =( NAMED_UNIT ( * ) PLANE_ANGLE_UNIT ( ) SI_UNIT ( $, .RADIAN. ) );
#90 = FILL_AREA_STYLE ('',( #658 ) ) ;
#91 = ORIENTED_EDGE ( 'NONE', *, *, #5, .F. ) ;
#92 = PLANE ( 'NONE',  #117 ) ;
#93 =( NAMED_UNIT ( * ) SI_UNIT ( $, .STERADIAN. ) SOLID_ANGLE_UNIT ( ) );
#94 = PRESENTATION_STYLE_ASSIGNMENT (( #504 ) ) ;
#95 = AXIS2_PLACEMENT_3D ( 'NONE', #441, #587, #296 ) ;
#96 = LINE ( 'NONE', #828, #835 ) ;
#97 = EDGE_CURVE ( 'NONE', #187, #307, #329, .T. ) ;
#98 = CARTESIAN_POINT ( 'NONE',  ( -0.4000000000000002442, 0.2900000000000000355, -1.000000000000000222 ) ) ;
#99 = ORIENTED_EDGE ( 'NONE', *, *, #390, .F. ) ;
#100 =( NAMED_UNIT ( * ) SI_UNIT ( $, .STERADIAN. ) SOLID_ANGLE_UNIT ( ) );
#101 = MECHANICAL_DESIGN_GEOMETRIC_PRESENTATION_REPRESENTATION (  '', ( #204 ), #810 ) ;
#102 = PLANE ( 'NONE',  #608 ) ;
#103 = EDGE_CURVE ( 'NONE', #368, #723, #921, .T. ) ;
#104 = VERTEX_POINT ( 'NONE', #434 ) ;
#105 = FILL_AREA_STYLE ('',( #512 ) ) ;
#106 = EDGE_LOOP ( 'NONE', ( #120, #314, #399, #844 ) ) ;
#107 = FILL_AREA_STYLE_COLOUR ( '', #757 ) ;
#108 =( LENGTH_UNIT ( ) NAMED_UNIT ( * ) SI_UNIT ( .MILLI., .METRE. ) );
#109 = SURFACE_STYLE_FILL_AREA ( #747 ) ;
#110 = EDGE_LOOP ( 'NONE', ( #402, #135, #330, #767 ) ) ;
#111 = DIRECTION ( 'NONE',  ( -0.0000000000000000000, -0.0000000000000000000, 1.000000000000000000 ) ) ;
#112 = VERTEX_POINT ( 'NONE', #586 ) ;
#113 = PRESENTATION_STYLE_ASSIGNMENT (( #762 ) ) ;
#114 = DIRECTION ( 'NONE',  ( 1.000000000000000000, -1.215741406647348649E-16, 0.0000000000000000000 ) ) ;
#115 = CARTESIAN_POINT ( 'NONE',  ( 0.0000000000000000000, 1.189999999999999947, 0.0000000000000000000 ) ) ;
#116 = VECTOR ( 'NONE', #647, 1000.000000000000000 ) ;
#117 = AXIS2_PLACEMENT_3D ( 'NONE', #884, #298, #224 ) ;
#118 = DIRECTION ( 'NONE',  ( -1.000000000000000000, -0.0000000000000000000, -0.0000000000000000000 ) ) ;
#119 = LINE ( 'NONE', #639, #710 ) ;
#120 = ORIENTED_EDGE ( 'NONE', *, *, #55, .F. ) ;
#121 = DIRECTION ( 'NONE',  ( -1.000000000000000000, -1.215741406647348649E-16, 0.0000000000000000000 ) ) ;
#122 =( LENGTH_UNIT ( ) NAMED_UNIT ( * ) SI_UNIT ( .MILLI., .METRE. ) );
#123 = CARTESIAN_POINT ( 'NONE',  ( 1.250000000000000222, -0.01000000000000000021, 1.000000000000000000 ) ) ;
#124 =( LENGTH_UNIT ( ) NAMED_UNIT ( * ) SI_UNIT ( .MILLI., .METRE. ) );
#125 = EDGE_LOOP ( 'NONE', ( #917, #518, #642, #663, #445, #595 ) ) ;
#126 = ORIENTED_EDGE ( 'NONE', *, *, #133, .F. ) ;
#127 = FACE_OUTER_BOUND ( 'NONE', #140, .T. ) ;
#128 = DIRECTION ( 'NONE',  ( 1.000000000000000000, -0.0000000000000000000, -0.0000000000000000000 ) ) ;
#129 = LINE ( 'NONE', #925, #289 ) ;
#130 = ORIENTED_EDGE ( 'NONE', *, *, #249, .F. ) ;
#131 = APPLICATION_CONTEXT ( 'automotive_design' ) ;
#132 = CARTESIAN_POINT ( 'NONE',  ( 0.4000000000000002998, -0.01000000000000010429, 0.9899999999999999911 ) ) ;
#133 = EDGE_CURVE ( 'NONE', #632, #404, #234, .T. ) ;
#134 = CARTESIAN_POINT ( 'NONE',  ( 1.250000000000000000, -0.01000000000000006266, -1.000000000000000444 ) ) ;
#135 = ORIENTED_EDGE ( 'NONE', *, *, #410, .T. ) ;
#136 = APPLICATION_PROTOCOL_DEFINITION ( 'draft international standard', 'automotive_design', 1998, #416 ) ;
#137 = VECTOR ( 'NONE', #231, 1000.000000000000000 ) ;
#138 = CARTESIAN_POINT ( 'NONE',  ( 1.209453867849582975, 0.6913653303760431967, -0.9494538678495826334 ) ) ;
#139 = CARTESIAN_POINT ( 'NONE',  ( -1.250000000000000000, 0.2899999999999999800, 0.9900000000000002132 ) ) ;
#140 = EDGE_LOOP ( 'NONE', ( #468, #421, #211, #550, #703, #901 ) ) ;
#141 = AXIS2_PLACEMENT_3D ( 'NONE', #115, #203, #643 ) ;
#142 = SURFACE_SIDE_STYLE ('',( #264 ) ) ;
#143 = ORIENTED_EDGE ( 'NONE', *, *, #362, .F. ) ;
#144 = VERTEX_POINT ( 'NONE', #156 ) ;
#145 = EDGE_CURVE ( 'NONE', #404, #32, #535, .T. ) ;
#146 = PLANE ( 'NONE',  #923 ) ;
#147 = LINE ( 'NONE', #563, #559 ) ;
#148 = EDGE_CURVE ( 'NONE', #334, #144, #883, .T. ) ;
#149 = FILL_AREA_STYLE ('',( #495 ) ) ;
#150 = COLOUR_RGB ( '',0.7686274509803920907, 0.7686274509803920907, 0.7686274509803920907 ) ;
#151 = LINE ( 'NONE', #775, #922 ) ;
#152 =( LENGTH_UNIT ( ) NAMED_UNIT ( * ) SI_UNIT ( .MILLI., .METRE. ) );
#153 = DIRECTION ( 'NONE',  ( 1.000000000000000000, -0.0000000000000000000, -8.673617379884034239E-17 ) ) ;
#154 = ORIENTED_EDGE ( 'NONE', *, *, #50, .T. ) ;
#155 = SURFACE_STYLE_USAGE ( .BOTH. , #142 ) ;
#156 = CARTESIAN_POINT ( 'NONE',  ( -0.4000000000000004108, 0.2899999999999999800, -0.9899999999999999911 ) ) ;
#157 = LINE ( 'NONE', #132, #510 ) ;
#158 = DIRECTION ( 'NONE',  ( -8.673617379884034239E-17, 0.0000000000000000000, -1.000000000000000000 ) ) ;
#159 = ORIENTED_EDGE ( 'NONE', *, *, #505, .T. ) ;
#160 =( NAMED_UNIT ( * ) SI_UNIT ( $, .STERADIAN. ) SOLID_ANGLE_UNIT ( ) );
#161 = DIRECTION ( 'NONE',  ( 0.0000000000000000000, -0.0000000000000000000, 1.000000000000000000 ) ) ;
#162 = ORIENTED_EDGE ( 'NONE', *, *, #8, .T. ) ;
#163 = CARTESIAN_POINT ( 'NONE',  ( 0.4000000000000002442, 0.2900000000000000355, -1.000000000000000222 ) ) ;
#164 = LINE ( 'NONE', #683, #918 ) ;
#165 =( NAMED_UNIT ( * ) SI_UNIT ( $, .STERADIAN. ) SOLID_ANGLE_UNIT ( ) );
#166 = FILL_AREA_STYLE ('',( #760 ) ) ;
#167 = UNCERTAINTY_MEASURE_WITH_UNIT (LENGTH_MEASURE( 1.000000000000000082E-05 ), #653, 'distance_accuracy_value', 'NONE');
#168 = VERTEX_POINT ( 'NONE', #364 ) ;
#169 =( LENGTH_UNIT ( ) NAMED_UNIT ( * ) SI_UNIT ( .MILLI., .METRE. ) );
#170 = PLANE ( 'NONE',  #273 ) ;
#171 = MECHANICAL_DESIGN_GEOMETRIC_PRESENTATION_REPRESENTATION (  '', ( #35 ), #219 ) ;
#172 =( NAMED_UNIT ( * ) SI_UNIT ( $, .STERADIAN. ) SOLID_ANGLE_UNIT ( ) );
#173 = MECHANICAL_DESIGN_GEOMETRIC_PRESENTATION_REPRESENTATION (  '', ( #221 ), #318 ) ;
#174 = ORIENTED_EDGE ( 'NONE', *, *, #505, .F. ) ;
#175 = DIRECTION ( 'NONE',  ( 1.000000000000000000, 0.0000000000000000000, 0.0000000000000000000 ) ) ;
#176 = VERTEX_POINT ( 'NONE', #439 ) ;
#177 =( NAMED_UNIT ( * ) PLANE_ANGLE_UNIT ( ) SI_UNIT ( $, .RADIAN. ) );
#178 = VECTOR ( 'NONE', #602, 1000.000000000000000 ) ;
#179 = VECTOR ( 'NONE', #287, 1000.000000000000000 ) ;
#180 = CARTESIAN_POINT ( 'NONE',  ( -0.4000000000000002998, -0.01000000000000010429, 1.000000000000000000 ) ) ;
#181 = VECTOR ( 'NONE', #824, 1000.000000000000000 ) ;
#182 =( GEOMETRIC_REPRESENTATION_CONTEXT ( 3 ) GLOBAL_UNCERTAINTY_ASSIGNED_CONTEXT ( ( #282 ) ) GLOBAL_UNIT_ASSIGNED_CONTEXT ( ( #108, #453, #831 ) ) REPRESENTATION_CONTEXT ( 'NONE', 'WORKASPACE' ) );
#183 = CARTESIAN_POINT ( 'NONE',  ( -1.249999999999999778, 1.189999999999999947, -0.9899999999999997691 ) ) ;
#184 = DIRECTION ( 'NONE',  ( -1.000000000000000000, 0.0000000000000000000, 2.551063935260010984E-16 ) ) ;
#185 = PLANE ( 'NONE',  #740 ) ;
#186 = PRESENTATION_LAYER_ASSIGNMENT (  '', '', ( #221 ) ) ;
#187 = VERTEX_POINT ( 'NONE', #163 ) ;
#188 = SURFACE_STYLE_FILL_AREA ( #105 ) ;
#189 = LINE ( 'NONE', #60, #719 ) ;
#190 = PRESENTATION_LAYER_ASSIGNMENT (  '', '', ( #204 ) ) ;
#191 = CARTESIAN_POINT ( 'NONE',  ( 1.250000000000000000, 0.0000000000000000000, -0.9899999999999999911 ) ) ;
#192 = ORIENTED_EDGE ( 'NONE', *, *, #206, .T. ) ;
#193 = DIRECTION ( 'NONE',  ( 0.0000000000000000000, -1.000000000000000000, 0.0000000000000000000 ) ) ;
#194 = EDGE_CURVE ( 'NONE', #890, #404, #860, .T. ) ;
#195 = ORIENTED_EDGE ( 'NONE', *, *, #588, .F. ) ;
#196 = DIRECTION ( 'NONE',  ( -0.0000000000000000000, -0.0000000000000000000, 1.000000000000000000 ) ) ;
#197 = EDGE_LOOP ( 'NONE', ( #803, #346, #37, #305 ) ) ;
#198 = VECTOR ( 'NONE', #386, 1000.000000000000000 ) ;
#199 = FILL_AREA_STYLE_COLOUR ( '', #582 ) ;
#200 = LINE ( 'NONE', #525, #409 ) ;
#201 = LINE ( 'NONE', #780, #720 ) ;
#202 = CARTESIAN_POINT ( 'NONE',  ( 1.250000000000000000, 0.2899999999999999245, -0.9900000000000004352 ) ) ;
#203 = DIRECTION ( 'NONE',  ( 0.0000000000000000000, -1.000000000000000000, 0.0000000000000000000 ) ) ;
#204 = STYLED_ITEM ( 'NONE', ( #473 ), #280 ) ;
#205 = ORIENTED_EDGE ( 'NONE', *, *, #528, .F. ) ;
#206 = EDGE_CURVE ( 'NONE', #714, #351, #299, .T. ) ;
#207 = VECTOR ( 'NONE', #836, 1000.000000000000000 ) ;
#208 = COLOUR_RGB ( '',0.7686274509803920907, 0.7686274509803920907, 0.7686274509803920907 ) ;
#209 = SURFACE_STYLE_FILL_AREA ( #90 ) ;
#210 = COLOUR_RGB ( '',0.7686274509803920907, 0.7686274509803920907, 0.7686274509803920907 ) ;
#211 = ORIENTED_EDGE ( 'NONE', *, *, #50, .F. ) ;
#212 = CARTESIAN_POINT ( 'NONE',  ( -0.4000000000000002998, 0.2899999999999998690, 1.000000000000000000 ) ) ;
#213 = ADVANCED_FACE ( 'NONE', ( #277 ), #444, .F. ) ;
#214 = SURFACE_SIDE_STYLE ('',( #616 ) ) ;
#215 = CARTESIAN_POINT ( 'NONE',  ( 1.250000000000000000, 0.2899999999999999800, -0.9899999999999999911 ) ) ;
#216 = EDGE_LOOP ( 'NONE', ( #449, #58, #126, #499, #665, #544, #458, #672 ) ) ;
#217 = ORIENTED_EDGE ( 'NONE', *, *, #427, .F. ) ;
#218 = FILL_AREA_STYLE ('',( #576 ) ) ;
#219 =( GEOMETRIC_REPRESENTATION_CONTEXT ( 3 ) GLOBAL_UNCERTAINTY_ASSIGNED_CONTEXT ( ( #916 ) ) GLOBAL_UNIT_ASSIGNED_CONTEXT ( ( #744, #594, #165 ) ) REPRESENTATION_CONTEXT ( 'NONE', 'WORKASPACE' ) );
#220 = ADVANCED_FACE ( 'NONE', ( #85 ), #313, .F. ) ;
#221 = STYLED_ITEM ( 'NONE', ( #593 ), #67 ) ;
#222 = CYLINDRICAL_SURFACE ( 'NONE', #862, 1.500000000000000444 ) ;
#223 = DIRECTION ( 'NONE',  ( -4.336808689942018229E-16, -0.0000000000000000000, 1.000000000000000000 ) ) ;
#224 = DIRECTION ( 'NONE',  ( -1.000000000000000000, -1.275531967630005739E-16, 0.0000000000000000000 ) ) ;
#225 = FACE_OUTER_BOUND ( 'NONE', #341, .T. ) ;
#226 = DIRECTION ( 'NONE',  ( 1.000000000000000000, -1.275531967630005739E-16, 0.0000000000000000000 ) ) ;
#227 = CARTESIAN_POINT ( 'NONE',  ( 1.250000000000000222, 0.2899999999999999800, 0.9899999999999999911 ) ) ;
#228 = CARTESIAN_POINT ( 'NONE',  ( 1.250000000000000222, 0.2900000000000000355, 1.000000000000000000 ) ) ;
#229 = EDGE_LOOP ( 'NONE', ( #553, #159, #356, #74 ) ) ;
#230 = CARTESIAN_POINT ( 'NONE',  ( 1.250000000000000000, 1.189999999999999947, 0.9900000000000002132 ) ) ;
#231 = DIRECTION ( 'NONE',  ( -0.0000000000000000000, -0.0000000000000000000, -1.000000000000000000 ) ) ;
#232 = VECTOR ( 'NONE', #33, 1000.000000000000000 ) ;
#233 = SURFACE_STYLE_USAGE ( .BOTH. , #660 ) ;
#234 = LINE ( 'NONE', #367, #137 ) ;
#235 = VERTEX_POINT ( 'NONE', #522 ) ;
#236 = DIRECTION ( 'NONE',  ( -0.0000000000000000000, -0.0000000000000000000, 1.000000000000000000 ) ) ;
#237 = MECHANICAL_DESIGN_GEOMETRIC_PRESENTATION_REPRESENTATION (  '', ( #316 ), #603 ) ;
#238 = CARTESIAN_POINT ( 'NONE',  ( 1.250000000000000000, 0.8899999999999999023, 0.9900000000000002132 ) ) ;
#239 = EDGE_CURVE ( 'NONE', #931, #571, #671, .T. ) ;
#240 = ORIENTED_EDGE ( 'NONE', *, *, #735, .T. ) ;
#241 = EDGE_LOOP ( 'NONE', ( #866, #257, #250, #267 ) ) ;
#242 = PRESENTATION_STYLE_ASSIGNMENT (( #155 ) ) ;
#243 = DIRECTION ( 'NONE',  ( 0.0000000000000000000, -1.000000000000000000, -0.0000000000000000000 ) ) ;
#244 = CARTESIAN_POINT ( 'NONE',  ( 1.250000000000000000, 1.189999999999999947, -0.9899999999999997691 ) ) ;
#245 =( NAMED_UNIT ( * ) SI_UNIT ( $, .STERADIAN. ) SOLID_ANGLE_UNIT ( ) );
#246 = CARTESIAN_POINT ( 'NONE',  ( -1.209453867849582975, 0.6913653303760430857, 0.9494538678495830775 ) ) ;
#247 = STYLED_ITEM ( 'NONE', ( #486 ), #82 ) ;
#248 = FILL_AREA_STYLE ('',( #679 ) ) ;
#249 = EDGE_CURVE ( 'NONE', #908, #506, #384, .T. ) ;
#250 = ORIENTED_EDGE ( 'NONE', *, *, #687, .T. ) ;
#251 = FILL_AREA_STYLE ('',( #335 ) ) ;
#252 =( BOUNDED_CURVE ( )  B_SPLINE_CURVE ( 3, ( #702, #138, #65, #202 ),
 .UNSPECIFIED., .F., .F. ) 
 B_SPLINE_CURVE_WITH_KNOTS ( ( 4, 4 ),
 ( 2.940234732799462680, 3.342950574380123996 ),
 .UNSPECIFIED. ) 
 CURVE ( )  GEOMETRIC_REPRESENTATION_ITEM ( )  RATIONAL_B_SPLINE_CURVE ( ( 1.000000000000000000, 0.9865305980755142423, 0.9865305980755142423, 1.000000000000000000 ) ) 
 REPRESENTATION_ITEM ( '' )  );
#253 = LINE ( 'NONE', #539, #198 ) ;
#254 = DIRECTION ( 'NONE',  ( -1.000000000000000000, 0.0000000000000000000, 1.095153709581317675E-16 ) ) ;
#255 = EDGE_CURVE ( 'NONE', #104, #723, #881, .T. ) ;
#256 = PRESENTATION_LAYER_ASSIGNMENT (  '', '', ( #661 ) ) ;
#257 = ORIENTED_EDGE ( 'NONE', *, *, #148, .F. ) ;
#258 = CARTESIAN_POINT ( 'NONE',  ( 0.4000000000000002998, -0.01000000000000000021, -0.9899999999999999911 ) ) ;
#259 = DIRECTION ( 'NONE',  ( 0.0000000000000000000, 1.000000000000000000, 0.0000000000000000000 ) ) ;
#260 = ORIENTED_EDGE ( 'NONE', *, *, #239, .T. ) ;
#261 = CARTESIAN_POINT ( 'NONE',  ( 1.250000000000000222, 0.2899999999999999800, 0.9899999999999999911 ) ) ;
#262 =( BOUNDED_CURVE ( )  B_SPLINE_CURVE ( 3, ( #41, #246, #457, #45 ),
 .UNSPECIFIED., .F., .F. ) 
 B_SPLINE_CURVE_WITH_KNOTS ( ( 4, 4 ),
 ( 2.940234732799462680, 3.342950574380123996 ),
 .UNSPECIFIED. ) 
 CURVE ( )  GEOMETRIC_REPRESENTATION_ITEM ( )  RATIONAL_B_SPLINE_CURVE ( ( 1.000000000000000000, 0.9865305980755142423, 0.9865305980755142423, 1.000000000000000000 ) ) 
 REPRESENTATION_ITEM ( '' )  );
#263 = CARTESIAN_POINT ( 'NONE',  ( 1.250000000000000000, 1.189999999999999947, 0.9900000000000002132 ) ) ;
#264 = SURFACE_STYLE_FILL_AREA ( #792 ) ;
#265 = LINE ( 'NONE', #68, #694 ) ;
#266 = CARTESIAN_POINT ( 'NONE',  ( -1.249999999999999778, 1.189999999999999947, 0.9900000000000002132 ) ) ;
#267 = ORIENTED_EDGE ( 'NONE', *, *, #606, .T. ) ;
#268 = DIRECTION ( 'NONE',  ( 1.000000000000000000, 0.0000000000000000000, 0.0000000000000000000 ) ) ;
#269 = CARTESIAN_POINT ( 'NONE',  ( 0.4000000000000002442, 0.2900000000000000355, -1.000000000000000222 ) ) ;
#270 = PRODUCT_CONTEXT ( 'NONE', #131, 'mechanical' ) ;
#271 = CARTESIAN_POINT ( 'NONE',  ( 1.250000000000000222, 0.2900000000000000355, 0.9899999999999999911 ) ) ;
#272 = ORIENTED_EDGE ( 'NONE', *, *, #887, .T. ) ;
#273 = AXIS2_PLACEMENT_3D ( 'NONE', #451, #611, #184 ) ;
#274 = DIRECTION ( 'NONE',  ( 1.807003620809173646E-16, 1.000000000000000000, 0.0000000000000000000 ) ) ;
#275 = CARTESIAN_POINT ( 'NONE',  ( 1.209453867849583197, 0.4886346696239569076, 0.9494538678495834105 ) ) ;
#276 = DIRECTION ( 'NONE',  ( 0.0000000000000000000, 0.0000000000000000000, -1.000000000000000000 ) ) ;
#277 = FACE_OUTER_BOUND ( 'NONE', #369, .T. ) ;
#278 = ORIENTED_EDGE ( 'NONE', *, *, #484, .F. ) ;
#279 = AXIS2_PLACEMENT_3D ( 'NONE', #9, #276, #490 ) ;
#280 = ADVANCED_FACE ( 'NONE', ( #534 ), #102, .T. ) ;
#281 =( NAMED_UNIT ( * ) SI_UNIT ( $, .STERADIAN. ) SOLID_ANGLE_UNIT ( ) );
#282 = UNCERTAINTY_MEASURE_WITH_UNIT (LENGTH_MEASURE( 1.000000000000000082E-05 ), #108, 'distance_accuracy_value', 'NONE');
#283 =( NAMED_UNIT ( * ) PLANE_ANGLE_UNIT ( ) SI_UNIT ( $, .RADIAN. ) );
#284 = STYLED_ITEM ( 'NONE', ( #94 ), #631 ) ;
#285 = EDGE_LOOP ( 'NONE', ( #646, #598, #278, #829 ) ) ;
#286 = VERTEX_POINT ( 'NONE', #893 ) ;
#287 = DIRECTION ( 'NONE',  ( -1.000000000000000000, 7.174867317918781663E-17, 2.551063935260011477E-16 ) ) ;
#288 = DIRECTION ( 'NONE',  ( 1.000000000000000000, -0.0000000000000000000, -8.673617379884034239E-17 ) ) ;
#289 = VECTOR ( 'NONE', #63, 1000.000000000000000 ) ;
#290 = ADVANCED_FACE ( 'NONE', ( #872 ), #527, .T. ) ;
#291 = ORIENTED_EDGE ( 'NONE', *, *, #635, .T. ) ;
#292 =( NAMED_UNIT ( * ) PLANE_ANGLE_UNIT ( ) SI_UNIT ( $, .RADIAN. ) );
#293 = AXIS2_PLACEMENT_3D ( 'NONE', #910, #750, #315 ) ;
#294 = SURFACE_STYLE_USAGE ( .BOTH. , #515 ) ;
#295 = LINE ( 'NONE', #898, #178 ) ;
#296 = DIRECTION ( 'NONE',  ( 0.0000000000000000000, 0.0000000000000000000, 1.000000000000000000 ) ) ;
#297 = LINE ( 'NONE', #572, #816 ) ;
#298 = DIRECTION ( 'NONE',  ( -1.275531967630005739E-16, 1.000000000000000000, -5.531738121516647547E-32 ) ) ;
#299 = LINE ( 'NONE', #511, #374 ) ;
#300 = DIRECTION ( 'NONE',  ( 0.0000000000000000000, 1.000000000000000000, 0.0000000000000000000 ) ) ;
#301 = EDGE_LOOP ( 'NONE', ( #192, #689, #99, #321 ) ) ;
#302 = SURFACE_STYLE_USAGE ( .BOTH. , #23 ) ;
#303 =( GEOMETRIC_REPRESENTATION_CONTEXT ( 3 ) GLOBAL_UNCERTAINTY_ASSIGNED_CONTEXT ( ( #936 ) ) GLOBAL_UNIT_ASSIGNED_CONTEXT ( ( #122, #615, #547 ) ) REPRESENTATION_CONTEXT ( 'NONE', 'WORKASPACE' ) );
#304 = DIRECTION ( 'NONE',  ( -0.0000000000000000000, -1.000000000000000000, -0.0000000000000000000 ) ) ;
#305 = ORIENTED_EDGE ( 'NONE', *, *, #635, .F. ) ;
#306 = DIRECTION ( 'NONE',  ( 2.551063935260010984E-16, -4.609781767930539075E-32, -1.000000000000000000 ) ) ;
#307 = VERTEX_POINT ( 'NONE', #43 ) ;
#308 = CARTESIAN_POINT ( 'NONE',  ( 0.0000000000000000000, -0.01000000000000000021, 0.0000000000000000000 ) ) ;
#309 = FACE_OUTER_BOUND ( 'NONE', #285, .T. ) ;
#310 = LINE ( 'NONE', #358, #28 ) ;
#311 = VECTOR ( 'NONE', #477, 1000.000000000000000 ) ;
#312 = CARTESIAN_POINT ( 'NONE',  ( 1.250000000000000000, 0.2899999999999999800, -0.9899999999999999911 ) ) ;
#313 = CYLINDRICAL_SURFACE ( 'NONE', #761, 1.500000000000000444 ) ;
#314 = ORIENTED_EDGE ( 'NONE', *, *, #575, .T. ) ;
#315 = DIRECTION ( 'NONE',  ( 1.000000000000000000, 0.0000000000000000000, -0.0000000000000000000 ) ) ;
#316 = STYLED_ITEM ( 'NONE', ( #935 ), #213 ) ;
#317 =( NAMED_UNIT ( * ) PLANE_ANGLE_UNIT ( ) SI_UNIT ( $, .RADIAN. ) );
#318 =( GEOMETRIC_REPRESENTATION_CONTEXT ( 3 ) GLOBAL_UNCERTAINTY_ASSIGNED_CONTEXT ( ( #614 ) ) GLOBAL_UNIT_ASSIGNED_CONTEXT ( ( #152, #292, #281 ) ) REPRESENTATION_CONTEXT ( 'NONE', 'WORKASPACE' ) );
#319 = EDGE_CURVE ( 'NONE', #571, #714, #858, .T. ) ;
#320 = CARTESIAN_POINT ( 'NONE',  ( -1.250000000000000222, 0.2900000000000000355, 1.000000000000000000 ) ) ;
#321 = ORIENTED_EDGE ( 'NONE', *, *, #684, .T. ) ;
#322 = VECTOR ( 'NONE', #778, 1000.000000000000000 ) ;
#323 = VECTOR ( 'NONE', #236, 1000.000000000000000 ) ;
#324 = SURFACE_SIDE_STYLE ('',( #73 ) ) ;
#325 = EDGE_CURVE ( 'NONE', #26, #464, #200, .T. ) ;
#326 = ADVANCED_BREP_SHAPE_REPRESENTATION ( 'VLS252012CX(3Dmodel)', ( #446, #398 ), #461 ) ;
#327 = VECTOR ( 'NONE', #805, 1000.000000000000000 ) ;
#328 = DIRECTION ( 'NONE',  ( -1.807003620809173646E-16, 1.000000000000000000, 0.0000000000000000000 ) ) ;
#329 = LINE ( 'NONE', #875, #42 ) ;
#330 = ORIENTED_EDGE ( 'NONE', *, *, #903, .T. ) ;
#331 = AXIS2_PLACEMENT_3D ( 'NONE', #366, #158, #521 ) ;
#332 = CARTESIAN_POINT ( 'NONE',  ( -0.4000000000000002442, 0.2900000000000000355, -1.000000000000000222 ) ) ;
#333 = DIRECTION ( 'NONE',  ( 0.0000000000000000000, 0.0000000000000000000, -1.000000000000000000 ) ) ;
#334 = VERTEX_POINT ( 'NONE', #332 ) ;
#335 = FILL_AREA_STYLE_COLOUR ( '', #150 ) ;
#336 = ORIENTED_EDGE ( 'NONE', *, *, #97, .T. ) ;
#337 = AXIS2_PLACEMENT_3D ( 'NONE', #517, #306, #886 ) ;
#338 = CARTESIAN_POINT ( 'NONE',  ( 0.0000000000000000000, 0.0000000000000000000, 0.0000000000000000000 ) ) ;
#339 = UNCERTAINTY_MEASURE_WITH_UNIT (LENGTH_MEASURE( 1.000000000000000082E-05 ), #88, 'distance_accuracy_value', 'NONE');
#340 = DIRECTION ( 'NONE',  ( -1.000000000000000000, -1.275531967630005492E-16, -2.551063935260010984E-16 ) ) ;
#341 = EDGE_LOOP ( 'NONE', ( #854, #928, #621, #733 ) ) ;
#342 = FILL_AREA_STYLE ('',( #199 ) ) ;
#343 = PRODUCT_DEFINITION ( 'UNKNOWN', '', #728, #912 ) ;
#344 = CARTESIAN_POINT ( 'NONE',  ( -0.4000000000000002998, -0.01000000000000000021, -1.000000000000000222 ) ) ;
#345 = COLOUR_RGB ( '',0.7686274509803920907, 0.7686274509803920907, 0.7686274509803920907 ) ;
#346 = ORIENTED_EDGE ( 'NONE', *, *, #476, .T. ) ;
#347 = MECHANICAL_DESIGN_GEOMETRIC_PRESENTATION_REPRESENTATION (  '', ( #754 ), #793 ) ;
#348 = EDGE_CURVE ( 'NONE', #753, #351, #40, .T. ) ;
#349 =( NAMED_UNIT ( * ) SI_UNIT ( $, .STERADIAN. ) SOLID_ANGLE_UNIT ( ) );
#350 = ORIENTED_EDGE ( 'NONE', *, *, #8, .F. ) ;
#351 = VERTEX_POINT ( 'NONE', #845 ) ;
#352 = PRESENTATION_STYLE_ASSIGNMENT (( #233 ) ) ;
#353 = CARTESIAN_POINT ( 'NONE',  ( 0.4000000000000002442, 0.2900000000000000355, -1.000000000000000222 ) ) ;
#354 = PRESENTATION_STYLE_ASSIGNMENT (( #564 ) ) ;
#355 = COLOUR_RGB ( '',0.7686274509803920907, 0.7686274509803920907, 0.7686274509803920907 ) ;
#356 = ORIENTED_EDGE ( 'NONE', *, *, #436, .T. ) ;
#357 = SURFACE_STYLE_USAGE ( .BOTH. , #420 ) ;
#358 = CARTESIAN_POINT ( 'NONE',  ( 0.4000000000000002998, -0.01000000000000000021, -1.000000000000000222 ) ) ;
#359 = EDGE_LOOP ( 'NONE', ( #493, #724, #162, #776 ) ) ;
#360 = EDGE_LOOP ( 'NONE', ( #350, #801, #623, #392 ) ) ;
#361 =( LENGTH_UNIT ( ) NAMED_UNIT ( * ) SI_UNIT ( .MILLI., .METRE. ) );
#362 = EDGE_CURVE ( 'NONE', #723, #32, #657, .T. ) ;
#363 = SURFACE_STYLE_FILL_AREA ( #251 ) ;
#364 = CARTESIAN_POINT ( 'NONE',  ( 0.4000000000000002998, -0.01000000000000000021, -1.000000000000000222 ) ) ;
#365 = PRESENTATION_LAYER_ASSIGNMENT (  '', '', ( #675 ) ) ;
#366 = CARTESIAN_POINT ( 'NONE',  ( 1.250000000000000222, 0.2899999999999999800, 0.9899999999999999911 ) ) ;
#367 = CARTESIAN_POINT ( 'NONE',  ( -0.4000000000000002998, 0.2899999999999998690, 1.000000000000000000 ) ) ;
#368 = VERTEX_POINT ( 'NONE', #391 ) ;
#369 = EDGE_LOOP ( 'NONE', ( #291, #821, #825, #863, #849, #543, #877, #837 ) ) ;
#370 = PRESENTATION_LAYER_ASSIGNMENT (  '', '', ( #247 ) ) ;
#371 = CARTESIAN_POINT ( 'NONE',  ( -1.250000000000000000, 0.2899999999999999800, 0.9900000000000002132 ) ) ;
#372 = DIRECTION ( 'NONE',  ( 1.000000000000000000, 0.0000000000000000000, 0.0000000000000000000 ) ) ;
#373 =( BOUNDED_CURVE ( )  B_SPLINE_CURVE ( 3, ( #919, #549, #459, #537 ),
 .UNSPECIFIED., .F., .T. ) 
 B_SPLINE_CURVE_WITH_KNOTS ( ( 4, 4 ),
 ( 2.940234732799462680, 3.342950574380123996 ),
 .UNSPECIFIED. ) 
 CURVE ( )  GEOMETRIC_REPRESENTATION_ITEM ( )  RATIONAL_B_SPLINE_CURVE ( ( 1.000000000000000000, 0.9865305980755142423, 0.9865305980755142423, 1.000000000000000000 ) ) 
 REPRESENTATION_ITEM ( '' )  );
#374 = VECTOR ( 'NONE', #736, 1000.000000000000000 ) ;
#375 = EDGE_LOOP ( 'NONE', ( #217, #488, #565, #715, #1, #638 ) ) ;
#376 = STYLED_ITEM ( 'NONE', ( #242 ), #573 ) ;
#377 = DIRECTION ( 'NONE',  ( -0.0000000000000000000, 0.0000000000000000000, -1.000000000000000000 ) ) ;
#378 = VERTEX_POINT ( 'NONE', #902 ) ;
#379 = DIRECTION ( 'NONE',  ( 0.0000000000000000000, 1.000000000000000000, 0.0000000000000000000 ) ) ;
#380 = CLOSED_SHELL ( 'NONE', ( #708, #721, #701, #932, #867, #874, #77, #645, #799, #64, #578, #859, #865, #220, #213, #412, #562, #67, #573, #794, #633, #280, #290, #718, #82, #631 ) ) ;
#381 = CARTESIAN_POINT ( 'NONE',  ( -1.249999999999999778, 1.189999999999999947, 0.9900000000000002132 ) ) ;
#382 = LINE ( 'NONE', #698, #920 ) ;
#383 = PLANE ( 'NONE',  #293 ) ;
#384 = LINE ( 'NONE', #664, #485 ) ;
#385 = DIRECTION ( 'NONE',  ( 1.913297951445008361E-16, 1.000000000000000000, -0.0000000000000000000 ) ) ;
#386 = DIRECTION ( 'NONE',  ( 0.0000000000000000000, 1.000000000000000000, 0.0000000000000000000 ) ) ;
#387 = CARTESIAN_POINT ( 'NONE',  ( 0.0000000000000000000, -0.01000000000000000021, 0.0000000000000000000 ) ) ;
#388 = DIRECTION ( 'NONE',  ( 1.000000000000000000, 0.0000000000000000000, 0.0000000000000000000 ) ) ;
#389 = EDGE_CURVE ( 'NONE', #464, #235, #584, .T. ) ;
#390 = EDGE_CURVE ( 'NONE', #286, #753, #636, .T. ) ;
#391 = CARTESIAN_POINT ( 'NONE',  ( 1.250000000000000222, 0.2900000000000000355, 1.000000000000000000 ) ) ;
#392 = ORIENTED_EDGE ( 'NONE', *, *, #834, .T. ) ;
#393 = COLOUR_RGB ( '',0.7921568627450980005, 0.8196078431372548767, 0.9333333333333333481 ) ;
#394 = FILL_AREA_STYLE_COLOUR ( '', #393 ) ;
#395 = VECTOR ( 'NONE', #379, 1000.000000000000000 ) ;
#396 = DIRECTION ( 'NONE',  ( 0.0000000000000000000, 0.0000000000000000000, 1.000000000000000000 ) ) ;
#397 = COLOUR_RGB ( '',0.7686274509803920907, 0.7686274509803920907, 0.7686274509803920907 ) ;
#398 = AXIS2_PLACEMENT_3D ( 'NONE', #338, #56, #268 ) ;
#399 = ORIENTED_EDGE ( 'NONE', *, *, #487, .F. ) ;
#400 = CARTESIAN_POINT ( 'NONE',  ( 0.0000000000000000000, 0.8899999999999999023, -0.9899999999999995470 ) ) ;
#401 = CARTESIAN_POINT ( 'NONE',  ( 1.250000000000000222, 0.2899999999999999800, 0.9899999999999999911 ) ) ;
#402 = ORIENTED_EDGE ( 'NONE', *, *, #249, .T. ) ;
#403 = DIRECTION ( 'NONE',  ( -1.000000000000000000, -1.913297951445007868E-16, 0.0000000000000000000 ) ) ;
#404 = VERTEX_POINT ( 'NONE', #774 ) ;
#405 = PRESENTATION_LAYER_ASSIGNMENT (  '', '', ( #772 ) ) ;
#406 = FACE_OUTER_BOUND ( 'NONE', #751, .T. ) ;
#407 = VECTOR ( 'NONE', #492, 1000.000000000000000 ) ;
#408 = EDGE_CURVE ( 'NONE', #144, #378, #96, .T. ) ;
#409 = VECTOR ( 'NONE', #396, 1000.000000000000000 ) ;
#410 = EDGE_CURVE ( 'NONE', #506, #104, #16, .T. ) ;
#411 = CARTESIAN_POINT ( 'NONE',  ( 0.4000000000000002998, 0.0000000000000000000, -0.9900000000000002132 ) ) ;
#412 = ADVANCED_FACE ( 'NONE', ( #497 ), #185, .T. ) ;
#413 = EDGE_CURVE ( 'NONE', #506, #368, #29, .T. ) ;
#414 = CARTESIAN_POINT ( 'NONE',  ( -1.250000000000000000, -0.01000000000000006266, -1.000000000000000444 ) ) ;
#415 = ORIENTED_EDGE ( 'NONE', *, *, #471, .F. ) ;
#416 = APPLICATION_CONTEXT ( 'automotive_design' ) ;
#417 = SURFACE_SIDE_STYLE ('',( #869 ) ) ;
#418 = VECTOR ( 'NONE', #30, 1000.000000000000000 ) ;
#419 = FACE_OUTER_BOUND ( 'NONE', #241, .T. ) ;
#420 = SURFACE_SIDE_STYLE ('',( #84 ) ) ;
#421 = ORIENTED_EDGE ( 'NONE', *, *, #145, .T. ) ;
#422 = CARTESIAN_POINT ( 'NONE',  ( 1.250000000000000222, 0.2899999999999999800, 0.9899999999999999911 ) ) ;
#423 = AXIS2_PLACEMENT_3D ( 'NONE', #31, #677, #377 ) ;
#424 = EDGE_CURVE ( 'NONE', #7, #52, #743, .T. ) ;
#425 = ORIENTED_EDGE ( 'NONE', *, *, #560, .T. ) ;
#426 = UNCERTAINTY_MEASURE_WITH_UNIT (LENGTH_MEASURE( 1.000000000000000082E-05 ), #607, 'distance_accuracy_value', 'NONE');
#427 = EDGE_CURVE ( 'NONE', #12, #378, #373, .T. ) ;
#428 = ORIENTED_EDGE ( 'NONE', *, *, #427, .T. ) ;
#429 = CARTESIAN_POINT ( 'NONE',  ( -1.249999999999999778, 1.189999999999999947, 0.9900000000000002132 ) ) ;
#430 = VECTOR ( 'NONE', #53, 1000.000000000000000 ) ;
#431 = PRODUCT_DEFINITION_SHAPE ( 'NONE', 'NONE',  #343 ) ;
#432 = FILL_AREA_STYLE ('',( #716 ) ) ;
#433 = LINE ( 'NONE', #798, #407 ) ;
#434 = CARTESIAN_POINT ( 'NONE',  ( 0.4000000000000002998, -0.01000000000000010429, 1.000000000000000000 ) ) ;
#435 = VECTOR ( 'NONE', #533, 1000.000000000000000 ) ;
#436 = EDGE_CURVE ( 'NONE', #610, #908, #382, .T. ) ;
#437 = AXIS2_PLACEMENT_3D ( 'NONE', #261, #254, #465 ) ;
#438 = CARTESIAN_POINT ( 'NONE',  ( -1.249999999999999778, 1.189999999999999947, -0.9899999999999997691 ) ) ;
#439 = CARTESIAN_POINT ( 'NONE',  ( 1.250000000000000222, 0.2900000000000000355, 0.9899999999999999911 ) ) ;
#440 = EDGE_LOOP ( 'NONE', ( #589, #818, #91, #260 ) ) ;
#441 = CARTESIAN_POINT ( 'NONE',  ( 1.250000000000000000, 1.189999999999999947, 0.9900000000000002132 ) ) ;
#442 = EDGE_CURVE ( 'NONE', #52, #404, #39, .T. ) ;
#443 = LINE ( 'NONE', #215, #116 ) ;
#444 = PLANE ( 'NONE',  #423 ) ;
#445 = ORIENTED_EDGE ( 'NONE', *, *, #722, .T. ) ;
#446 = MANIFOLD_SOLID_BREP ( 'Ð×°5', #380 ) ;
#447 = CARTESIAN_POINT ( 'NONE',  ( 2.719693845669906906, 0.5900000000000004130, 0.9900000000000004352 ) ) ;
#448 = DIRECTION ( 'NONE',  ( 1.000000000000000000, 0.0000000000000000000, 0.0000000000000000000 ) ) ;
#449 = ORIENTED_EDGE ( 'NONE', *, *, #476, .F. ) ;
#450 = DIRECTION ( 'NONE',  ( -1.000000000000000000, 1.913297951445008361E-16, 0.0000000000000000000 ) ) ;
#451 = CARTESIAN_POINT ( 'NONE',  ( -2.568921382806831579E-16, -4.563683950251234692E-32, -1.000000000000000222 ) ) ;
#452 = SURFACE_SIDE_STYLE ('',( #109 ) ) ;
#453 =( NAMED_UNIT ( * ) PLANE_ANGLE_UNIT ( ) SI_UNIT ( $, .RADIAN. ) );
#454 = EDGE_LOOP ( 'NONE', ( #823, #938, #526, #240 ) ) ;
#455 =( BOUNDED_CURVE ( )  B_SPLINE_CURVE ( 3, ( #634, #275, #937, #927 ),
 .UNSPECIFIED., .F., .F. ) 
 B_SPLINE_CURVE_WITH_KNOTS ( ( 4, 4 ),
 ( 6.081827386389255352, 6.484543227969917112 ),
 .UNSPECIFIED. ) 
 CURVE ( )  GEOMETRIC_REPRESENTATION_ITEM ( )  RATIONAL_B_SPLINE_CURVE ( ( 1.000000000000000000, 0.9865305980755141313, 0.9865305980755141313, 1.000000000000000000 ) ) 
 REPRESENTATION_ITEM ( '' )  );
#456 = EDGE_CURVE ( 'NONE', #813, #32, #157, .T. ) ;
#457 = CARTESIAN_POINT ( 'NONE',  ( -1.209453867849583197, 0.4886346696239569076, 0.9494538678495834105 ) ) ;
#458 = ORIENTED_EDGE ( 'NONE', *, *, #148, .T. ) ;
#459 = CARTESIAN_POINT ( 'NONE',  ( -1.209453867849583197, 0.4886346696239569076, -0.9494538678495825224 ) ) ;
#460 = LINE ( 'NONE', #556, #430 ) ;
#461 =( GEOMETRIC_REPRESENTATION_CONTEXT ( 3 ) GLOBAL_UNCERTAINTY_ASSIGNED_CONTEXT ( ( #480 ) ) GLOBAL_UNIT_ASSIGNED_CONTEXT ( ( #124, #924, #472 ) ) REPRESENTATION_CONTEXT ( 'NONE', 'WORKASPACE' ) );
#462 = VECTOR ( 'NONE', #114, 1000.000000000000000 ) ;
#463 = VECTOR ( 'NONE', #153, 1000.000000000000000 ) ;
#464 = VERTEX_POINT ( 'NONE', #630 ) ;
#465 = DIRECTION ( 'NONE',  ( 1.095153709581317675E-16, 0.0000000000000000000, 1.000000000000000000 ) ) ;
#466 = AXIS2_PLACEMENT_3D ( 'NONE', #429, #11, #500 ) ;
#467 = CARTESIAN_POINT ( 'NONE',  ( -2.719693845669906906, 0.5900000000000003020, 0.9900000000000002132 ) ) ;
#468 = ORIENTED_EDGE ( 'NONE', *, *, #442, .T. ) ;
#469 = EDGE_LOOP ( 'NONE', ( #711, #13, #777, #47 ) ) ;
#470 = PRESENTATION_LAYER_ASSIGNMENT (  '', '', ( #649 ) ) ;
#471 = EDGE_CURVE ( 'NONE', #513, #26, #548, .T. ) ;
#472 =( NAMED_UNIT ( * ) SI_UNIT ( $, .STERADIAN. ) SOLID_ANGLE_UNIT ( ) );
#473 = PRESENTATION_STYLE_ASSIGNMENT (( #604 ) ) ;
#474 = VERTEX_POINT ( 'NONE', #705 ) ;
#475 = DIRECTION ( 'NONE',  ( 1.000000000000000000, -0.0000000000000000000, 0.0000000000000000000 ) ) ;
#476 = EDGE_CURVE ( 'NONE', #890, #897, #189, .T. ) ;
#477 = DIRECTION ( 'NONE',  ( -0.0000000000000000000, -0.0000000000000000000, 1.000000000000000000 ) ) ;
#478 = MECHANICAL_DESIGN_GEOMETRIC_PRESENTATION_REPRESENTATION (  '', ( #661 ), #597 ) ;
#479 = CARTESIAN_POINT ( 'NONE',  ( 0.4000000000000002998, 0.2899999999999998690, 0.9899999999999999911 ) ) ;
#480 = UNCERTAINTY_MEASURE_WITH_UNIT (LENGTH_MEASURE( 1.000000000000000082E-05 ), #124, 'distance_accuracy_value', 'NONE');
#481 = FACE_OUTER_BOUND ( 'NONE', #229, .T. ) ;
#482 = LINE ( 'NONE', #438, #693 ) ;
#483 = DIRECTION ( 'NONE',  ( 0.0000000000000000000, -1.000000000000000000, -0.0000000000000000000 ) ) ;
#484 = EDGE_CURVE ( 'NONE', #112, #931, #265, .T. ) ;
#485 = VECTOR ( 'NONE', #596, 1000.000000000000000 ) ;
#486 = PRESENTATION_STYLE_ASSIGNMENT (( #302 ) ) ;
#487 = EDGE_CURVE ( 'NONE', #351, #474, #252, .T. ) ;
#488 = ORIENTED_EDGE ( 'NONE', *, *, #887, .F. ) ;
#489 =( NAMED_UNIT ( * ) SI_UNIT ( $, .STERADIAN. ) SOLID_ANGLE_UNIT ( ) );
#490 = DIRECTION ( 'NONE',  ( -1.000000000000000000, 0.0000000000000000000, 0.0000000000000000000 ) ) ;
#491 = PRESENTATION_LAYER_ASSIGNMENT (  '', '', ( #655 ) ) ;
#492 = DIRECTION ( 'NONE',  ( 1.807003620809173646E-16, 1.000000000000000000, 0.0000000000000000000 ) ) ;
#493 = ORIENTED_EDGE ( 'NONE', *, *, #442, .F. ) ;
#494 = DIRECTION ( 'NONE',  ( 0.0000000000000000000, 0.0000000000000000000, 1.000000000000000000 ) ) ;
#495 = FILL_AREA_STYLE_COLOUR ( '', #759 ) ;
#496 = FACE_OUTER_BOUND ( 'NONE', #301, .T. ) ;
#497 = FACE_OUTER_BOUND ( 'NONE', #110, .T. ) ;
#498 = DIRECTION ( 'NONE',  ( 1.913297951445008361E-16, -1.000000000000000000, 0.0000000000000000000 ) ) ;
#499 = ORIENTED_EDGE ( 'NONE', *, *, #834, .F. ) ;
#500 = DIRECTION ( 'NONE',  ( -1.000000000000000000, 0.0000000000000000000, -0.0000000000000000000 ) ) ;
#501 = PLANE ( 'NONE',  #337 ) ;
#502 = DIRECTION ( 'NONE',  ( -1.000000000000000000, -1.913297951445007868E-16, 0.0000000000000000000 ) ) ;
#503 =( GEOMETRIC_REPRESENTATION_CONTEXT ( 3 ) GLOBAL_UNCERTAINTY_ASSIGNED_CONTEXT ( ( #339 ) ) GLOBAL_UNIT_ASSIGNED_CONTEXT ( ( #88, #662, #100 ) ) REPRESENTATION_CONTEXT ( 'NONE', 'WORKASPACE' ) );
#504 = SURFACE_STYLE_USAGE ( .BOTH. , #15 ) ;
#505 = EDGE_CURVE ( 'NONE', #187, #610, #601, .T. ) ;
#506 = VERTEX_POINT ( 'NONE', #786 ) ;
#507 = LINE ( 'NONE', #191, #654 ) ;
#508 = LINE ( 'NONE', #531, #832 ) ;
#509 = CARTESIAN_POINT ( 'NONE',  ( 1.250000000000000000, 0.2899999999999999245, -1.000000000000000444 ) ) ;
#510 = VECTOR ( 'NONE', #855, 1000.000000000000000 ) ;
#511 = CARTESIAN_POINT ( 'NONE',  ( 1.250000000000000222, 0.8899999999999999023, 0.0000000000000000000 ) ) ;
#512 = FILL_AREA_STYLE_COLOUR ( '', #345 ) ;
#513 = VERTEX_POINT ( 'NONE', #779 ) ;
#514 = UNCERTAINTY_MEASURE_WITH_UNIT (LENGTH_MEASURE( 1.000000000000000082E-05 ), #169, 'distance_accuracy_value', 'NONE');
#515 = SURFACE_SIDE_STYLE ('',( #785 ) ) ;
#516 = ORIENTED_EDGE ( 'NONE', *, *, #745, .T. ) ;
#517 = CARTESIAN_POINT ( 'NONE',  ( 2.568921382806831579E-16, -4.563683950251234692E-32, -1.000000000000000222 ) ) ;
#518 = ORIENTED_EDGE ( 'NONE', *, *, #606, .F. ) ;
#519 = COLOUR_RGB ( '',0.7686274509803920907, 0.7686274509803920907, 0.7686274509803920907 ) ;
#520 = VECTOR ( 'NONE', #483, 1000.000000000000000 ) ;
#521 = DIRECTION ( 'NONE',  ( -1.000000000000000000, 0.0000000000000000000, 8.673617379884034239E-17 ) ) ;
#522 = CARTESIAN_POINT ( 'NONE',  ( -0.4000000000000002998, -0.01000000000000010429, 1.000000000000000000 ) ) ;
#523 = VERTEX_POINT ( 'NONE', #344 ) ;
#524 = EDGE_CURVE ( 'NONE', #12, #571, #894, .T. ) ;
#525 = CARTESIAN_POINT ( 'NONE',  ( -1.250000000000000222, -0.01000000000000000021, -0.9899999999999999911 ) ) ;
#526 = ORIENTED_EDGE ( 'NONE', *, *, #390, .T. ) ;
#527 = PLANE ( 'NONE',  #856 ) ;
#528 = EDGE_CURVE ( 'NONE', #523, #334, #147, .T. ) ;
#529 = ORIENTED_EDGE ( 'NONE', *, *, #413, .F. ) ;
#530 = AXIS2_PLACEMENT_3D ( 'NONE', #266, #475, #333 ) ;
#531 = CARTESIAN_POINT ( 'NONE',  ( 1.250000000000000000, 0.2899999999999999800, -0.9899999999999999911 ) ) ;
#532 = LINE ( 'NONE', #371, #323 ) ;
#533 = DIRECTION ( 'NONE',  ( 0.0000000000000000000, 1.000000000000000000, 0.0000000000000000000 ) ) ;
#534 = FACE_OUTER_BOUND ( 'NONE', #469, .T. ) ;
#535 = LINE ( 'NONE', #227, #463 ) ;
#536 = VERTEX_POINT ( 'NONE', #411 ) ;
#537 = CARTESIAN_POINT ( 'NONE',  ( -1.250000000000000000, 0.2899999999999999800, -0.9899999999999999911 ) ) ;
#538 = EDGE_CURVE ( 'NONE', #26, #523, #129, .T. ) ;
#539 = CARTESIAN_POINT ( 'NONE',  ( -1.250000000000000222, -0.01000000000000000021, 1.000000000000000000 ) ) ;
#540 = EDGE_CURVE ( 'NONE', #908, #168, #730, .T. ) ;
#541 = DIRECTION ( 'NONE',  ( -0.0000000000000000000, -0.0000000000000000000, -1.000000000000000000 ) ) ;
#542 = SURFACE_SIDE_STYLE ('',( #666 ) ) ;
#543 = ORIENTED_EDGE ( 'NONE', *, *, #255, .T. ) ;
#544 = ORIENTED_EDGE ( 'NONE', *, *, #528, .T. ) ;
#545 = FACE_OUTER_BOUND ( 'NONE', #697, .T. ) ;
#546 = UNCERTAINTY_MEASURE_WITH_UNIT (LENGTH_MEASURE( 1.000000000000000082E-05 ), #826, 'distance_accuracy_value', 'NONE');
#547 =( NAMED_UNIT ( * ) SI_UNIT ( $, .STERADIAN. ) SOLID_ANGLE_UNIT ( ) );
#548 = LINE ( 'NONE', #414, #520 ) ;
#549 = CARTESIAN_POINT ( 'NONE',  ( -1.209453867849582975, 0.6913653303760430857, -0.9494538678495821893 ) ) ;
#550 = ORIENTED_EDGE ( 'NONE', *, *, #55, .T. ) ;
#551 = DIRECTION ( 'NONE',  ( 1.000000000000000000, -0.0000000000000000000, 0.0000000000000000000 ) ) ;
#552 = DIRECTION ( 'NONE',  ( 0.0000000000000000000, 0.0000000000000000000, -1.000000000000000000 ) ) ;
#553 = ORIENTED_EDGE ( 'NONE', *, *, #624, .T. ) ;
#554 = EDGE_LOOP ( 'NONE', ( #885, #36, #529, #130, #915, #577 ) ) ;
#555 = PRESENTATION_LAYER_ASSIGNMENT (  '', '', ( #376 ) ) ;
#556 = CARTESIAN_POINT ( 'NONE',  ( -0.4000000000000002998, -0.01000000000000000021, -0.9899999999999999911 ) ) ;
#557 = CYLINDRICAL_SURFACE ( 'NONE', #583, 1.500000000000000000 ) ;
#558 = LINE ( 'NONE', #230, #742 ) ;
#559 = VECTOR ( 'NONE', #274, 1000.000000000000000 ) ;
#560 = EDGE_CURVE ( 'NONE', #897, #144, #433, .T. ) ;
#561 = VECTOR ( 'NONE', #541, 1000.000000000000000 ) ;
#562 = ADVANCED_FACE ( 'NONE', ( #569 ), #729, .F. ) ;
#563 = CARTESIAN_POINT ( 'NONE',  ( -0.4000000000000002998, -0.01000000000000000021, -1.000000000000000222 ) ) ;
#564 = SURFACE_STYLE_USAGE ( .BOTH. , #417 ) ;
#565 = ORIENTED_EDGE ( 'NONE', *, *, #487, .T. ) ;
#566 = ORIENTED_EDGE ( 'NONE', *, *, #456, .T. ) ;
#567 = CARTESIAN_POINT ( 'NONE',  ( 1.250000000000000222, 0.2900000000000000355, 1.000000000000000000 ) ) ;
#568 = MECHANICAL_DESIGN_GEOMETRIC_PRESENTATION_REPRESENTATION (  '', ( #247 ), #619 ) ;
#569 = FACE_OUTER_BOUND ( 'NONE', #788, .T. ) ;
#570 = VECTOR ( 'NONE', #502, 1000.000000000000000 ) ;
#571 = VERTEX_POINT ( 'NONE', #75 ) ;
#572 = CARTESIAN_POINT ( 'NONE',  ( -1.250000000000000000, 0.2899999999999999245, -1.000000000000000444 ) ) ;
#573 = ADVANCED_FACE ( 'NONE', ( #406 ), #146, .F. ) ;
#574 =( GEOMETRIC_REPRESENTATION_CONTEXT ( 3 ) GLOBAL_UNCERTAINTY_ASSIGNED_CONTEXT ( ( #514 ) ) GLOBAL_UNIT_ASSIGNED_CONTEXT ( ( #169, #669, #245 ) ) REPRESENTATION_CONTEXT ( 'NONE', 'WORKASPACE' ) );
#575 = EDGE_CURVE ( 'NONE', #176, #474, #808, .T. ) ;
#576 = FILL_AREA_STYLE_COLOUR ( '', #355 ) ;
#577 = ORIENTED_EDGE ( 'NONE', *, *, #673, .T. ) ;
#578 = ADVANCED_FACE ( 'NONE', ( #127 ), #591, .F. ) ;
#579 = EDGE_LOOP ( 'NONE', ( #765, #87, #428, #746 ) ) ;
#580 = FILL_AREA_STYLE_COLOUR ( '', #857 ) ;
#581 = VECTOR ( 'NONE', #819, 1000.000000000000000 ) ;
#582 = COLOUR_RGB ( '',1.000000000000000000, 1.000000000000000000, 1.000000000000000000 ) ;
#583 = AXIS2_PLACEMENT_3D ( 'NONE', #686, #128, #690 ) ;
#584 = LINE ( 'NONE', #838, #462 ) ;
#585 = DIRECTION ( 'NONE',  ( 1.000000000000000000, 1.913297951445008361E-16, 0.0000000000000000000 ) ) ;
#586 = CARTESIAN_POINT ( 'NONE',  ( -1.249999999999999778, 1.189999999999999947, -0.9899999999999997691 ) ) ;
#587 = DIRECTION ( 'NONE',  ( -1.000000000000000000, 0.0000000000000000000, 0.0000000000000000000 ) ) ;
#588 = EDGE_CURVE ( 'NONE', #112, #12, #482, .T. ) ;
#589 = ORIENTED_EDGE ( 'NONE', *, *, #319, .T. ) ;
#590 = LINE ( 'NONE', #180, #395 ) ;
#591 = CYLINDRICAL_SURFACE ( 'NONE', #640, 1.500000000000000444 ) ;
#592 = VECTOR ( 'NONE', #787, 1000.000000000000000 ) ;
#593 = PRESENTATION_STYLE_ASSIGNMENT (( #800 ) ) ;
#594 =( NAMED_UNIT ( * ) PLANE_ANGLE_UNIT ( ) SI_UNIT ( $, .RADIAN. ) );
#595 = ORIENTED_EDGE ( 'NONE', *, *, #424, .T. ) ;
#596 = DIRECTION ( 'NONE',  ( 0.0000000000000000000, 0.0000000000000000000, 1.000000000000000000 ) ) ;
#597 =( GEOMETRIC_REPRESENTATION_CONTEXT ( 3 ) GLOBAL_UNCERTAINTY_ASSIGNED_CONTEXT ( ( #167 ) ) GLOBAL_UNIT_ASSIGNED_CONTEXT ( ( #653, #811, #93 ) ) REPRESENTATION_CONTEXT ( 'NONE', 'WORKASPACE' ) );
#598 = ORIENTED_EDGE ( 'NONE', *, *, #239, .F. ) ;
#599 = CARTESIAN_POINT ( 'NONE',  ( 0.0000000000000000000, 0.0000000000000000000, 1.000000000000000000 ) ) ;
#600 = ORIENTED_EDGE ( 'NONE', *, *, #784, .F. ) ;
#601 = LINE ( 'NONE', #269, #847 ) ;
#602 = DIRECTION ( 'NONE',  ( -0.0000000000000000000, -0.0000000000000000000, -1.000000000000000000 ) ) ;
#603 =( GEOMETRIC_REPRESENTATION_CONTEXT ( 3 ) GLOBAL_UNCERTAINTY_ASSIGNED_CONTEXT ( ( #546 ) ) GLOBAL_UNIT_ASSIGNED_CONTEXT ( ( #826, #317, #899 ) ) REPRESENTATION_CONTEXT ( 'NONE', 'WORKASPACE' ) );
#604 = SURFACE_STYLE_USAGE ( .BOTH. , #324 ) ;
#605 = EDGE_CURVE ( 'NONE', #307, #144, #443, .T. ) ;
#606 = EDGE_CURVE ( 'NONE', #513, #378, #297, .T. ) ;
#607 =( LENGTH_UNIT ( ) NAMED_UNIT ( * ) SI_UNIT ( .MILLI., .METRE. ) );
#608 = AXIS2_PLACEMENT_3D ( 'NONE', #308, #243, #820 ) ;
#609 = DIRECTION ( 'NONE',  ( 1.000000000000000000, 0.0000000000000000000, -0.0000000000000000000 ) ) ;
#610 = VERTEX_POINT ( 'NONE', #78 ) ;
#611 = DIRECTION ( 'NONE',  ( -2.551063935260010984E-16, -4.609781767930539075E-32, -1.000000000000000000 ) ) ;
#612 = FACE_OUTER_BOUND ( 'NONE', #579, .T. ) ;
#613 = FACE_OUTER_BOUND ( 'NONE', #682, .T. ) ;
#614 = UNCERTAINTY_MEASURE_WITH_UNIT (LENGTH_MEASURE( 1.000000000000000082E-05 ), #152, 'distance_accuracy_value', 'NONE');
#615 =( NAMED_UNIT ( * ) PLANE_ANGLE_UNIT ( ) SI_UNIT ( $, .RADIAN. ) );
#616 = SURFACE_STYLE_FILL_AREA ( #149 ) ;
#617 = ORIENTED_EDGE ( 'NONE', *, *, #906, .T. ) ;
#618 = DIRECTION ( 'NONE',  ( 0.0000000000000000000, -0.0000000000000000000, -1.000000000000000000 ) ) ;
#619 =( GEOMETRIC_REPRESENTATION_CONTEXT ( 3 ) GLOBAL_UNCERTAINTY_ASSIGNED_CONTEXT ( ( #727 ) ) GLOBAL_UNIT_ASSIGNED_CONTEXT ( ( #809, #89, #160 ) ) REPRESENTATION_CONTEXT ( 'NONE', 'WORKASPACE' ) );
#620 = PLANE ( 'NONE',  #530 ) ;
#621 = ORIENTED_EDGE ( 'NONE', *, *, #410, .F. ) ;
#622 =( LENGTH_UNIT ( ) NAMED_UNIT ( * ) SI_UNIT ( .MILLI., .METRE. ) );
#623 = ORIENTED_EDGE ( 'NONE', *, *, #389, .T. ) ;
#624 = EDGE_CURVE ( 'NONE', #168, #187, #310, .T. ) ;
#625 = APPLICATION_PROTOCOL_DEFINITION ( 'draft international standard', 'automotive_design', 1998, #131 ) ;
#626 = VECTOR ( 'NONE', #259, 1000.000000000000000 ) ;
#627 = DIRECTION ( 'NONE',  ( 0.0000000000000000000, -0.0000000000000000000, -1.000000000000000000 ) ) ;
#628 = FACE_OUTER_BOUND ( 'NONE', #440, .T. ) ;
#629 = PLANE ( 'NONE',  #72 ) ;
#630 = CARTESIAN_POINT ( 'NONE',  ( -1.250000000000000222, -0.01000000000000000021, 1.000000000000000000 ) ) ;
#631 = ADVANCED_FACE ( 'NONE', ( #613 ), #501, .T. ) ;
#632 = VERTEX_POINT ( 'NONE', #212 ) ;
#633 = ADVANCED_FACE ( 'NONE', ( #892 ), #18, .T. ) ;
#634 = CARTESIAN_POINT ( 'NONE',  ( 1.250000000000000222, 0.2900000000000000355, 0.9899999999999999911 ) ) ;
#635 = EDGE_CURVE ( 'NONE', #813, #536, #781, .T. ) ;
#636 = LINE ( 'NONE', #263, #934 ) ;
#637 = VECTOR ( 'NONE', #403, 1000.000000000000000 ) ;
#638 = ORIENTED_EDGE ( 'NONE', *, *, #408, .T. ) ;
#639 = CARTESIAN_POINT ( 'NONE',  ( 1.250000000000000222, 0.0000000000000000000, 0.9899999999999999911 ) ) ;
#640 = AXIS2_PLACEMENT_3D ( 'NONE', #6, #2, #494 ) ;
#641 = DIRECTION ( 'NONE',  ( -0.0000000000000000000, -1.000000000000000000, -0.0000000000000000000 ) ) ;
#642 = ORIENTED_EDGE ( 'NONE', *, *, #471, .T. ) ;
#643 = DIRECTION ( 'NONE',  ( 0.0000000000000000000, -0.0000000000000000000, -1.000000000000000000 ) ) ;
#644 = LINE ( 'NONE', #400, #322 ) ;
#645 = ADVANCED_FACE ( 'NONE', ( #496 ), #891, .F. ) ;
#646 = ORIENTED_EDGE ( 'NONE', *, *, #524, .T. ) ;
#647 = DIRECTION ( 'NONE',  ( -1.000000000000000000, 0.0000000000000000000, 0.0000000000000000000 ) ) ;
#648 = CARTESIAN_POINT ( 'NONE',  ( -0.4000000000000002998, -0.01000000000000010429, 0.9899999999999999911 ) ) ;
#649 = STYLED_ITEM ( 'NONE', ( #62 ), #290 ) ;
#650 = EDGE_CURVE ( 'NONE', #378, #52, #532, .T. ) ;
#651 = UNCERTAINTY_MEASURE_WITH_UNIT (LENGTH_MEASURE( 1.000000000000000082E-05 ), #864, 'distance_accuracy_value', 'NONE');
#652 = EDGE_LOOP ( 'NONE', ( #617, #425, #24, #80 ) ) ;
#653 =( LENGTH_UNIT ( ) NAMED_UNIT ( * ) SI_UNIT ( .MILLI., .METRE. ) );
#654 = VECTOR ( 'NONE', #773, 1000.000000000000000 ) ;
#655 = STYLED_ITEM ( 'NONE', ( #670 ), #562 ) ;
#656 = SURFACE_STYLE_FILL_AREA ( #876 ) ;
#657 = LINE ( 'NONE', #692, #561 ) ;
#658 = FILL_AREA_STYLE_COLOUR ( '', #397 ) ;
#659 = ORIENTED_EDGE ( 'NONE', *, *, #194, .F. ) ;
#660 = SURFACE_SIDE_STYLE ('',( #188 ) ) ;
#661 = STYLED_ITEM ( 'NONE', ( #352 ), #718 ) ;
#662 =( NAMED_UNIT ( * ) PLANE_ANGLE_UNIT ( ) SI_UNIT ( $, .RADIAN. ) );
#663 = ORIENTED_EDGE ( 'NONE', *, *, #325, .T. ) ;
#664 = CARTESIAN_POINT ( 'NONE',  ( 1.250000000000000222, -0.01000000000000000021, -0.9899999999999999911 ) ) ;
#665 = ORIENTED_EDGE ( 'NONE', *, *, #926, .T. ) ;
#666 = SURFACE_STYLE_FILL_AREA ( #913 ) ;
#667 = DIRECTION ( 'NONE',  ( 0.0000000000000000000, 0.0000000000000000000, -1.000000000000000000 ) ) ;
#668 = MECHANICAL_DESIGN_GEOMETRIC_PRESENTATION_REPRESENTATION (  '', ( #649 ), #574 ) ;
#669 =( NAMED_UNIT ( * ) PLANE_ANGLE_UNIT ( ) SI_UNIT ( $, .RADIAN. ) );
#670 = PRESENTATION_STYLE_ASSIGNMENT (( #357 ) ) ;
#671 = LINE ( 'NONE', #381, #181 ) ;
#672 = ORIENTED_EDGE ( 'NONE', *, *, #560, .F. ) ;
#673 = EDGE_CURVE ( 'NONE', #610, #474, #880, .T. ) ;
#674 = CARTESIAN_POINT ( 'NONE',  ( 0.4000000000000002998, -0.01000000000000010429, 1.000000000000000000 ) ) ;
#675 = STYLED_ITEM ( 'NONE', ( #806 ), #326 ) ;
#676 = DIRECTION ( 'NONE',  ( 0.0000000000000000000, 0.0000000000000000000, -1.000000000000000000 ) ) ;
#677 = DIRECTION ( 'NONE',  ( 1.000000000000000000, 0.0000000000000000000, -0.0000000000000000000 ) ) ;
#678 = LINE ( 'NONE', #183, #704 ) ;
#679 = FILL_AREA_STYLE_COLOUR ( '', #208 ) ;
#680 = VECTOR ( 'NONE', #763, 1000.000000000000000 ) ;
#681 = VECTOR ( 'NONE', #731, 1000.000000000000000 ) ;
#682 = EDGE_LOOP ( 'NONE', ( #205, #737, #415, #69 ) ) ;
#683 = CARTESIAN_POINT ( 'NONE',  ( 0.4000000000000002998, -0.01000000000000000021, -0.9900000000000002132 ) ) ;
#684 = EDGE_CURVE ( 'NONE', #286, #714, #558, .T. ) ;
#685 = PRESENTATION_LAYER_ASSIGNMENT (  '', '', ( #316 ) ) ;
#686 = CARTESIAN_POINT ( 'NONE',  ( -1.249999999999999778, 0.5900000000000003020, -2.459693845669906676 ) ) ;
#687 = EDGE_CURVE ( 'NONE', #334, #513, #755, .T. ) ;
#688 = ORIENTED_EDGE ( 'NONE', *, *, #673, .F. ) ;
#689 = ORIENTED_EDGE ( 'NONE', *, *, #348, .F. ) ;
#690 = DIRECTION ( 'NONE',  ( 0.0000000000000000000, 0.0000000000000000000, -1.000000000000000000 ) ) ;
#691 = FACE_OUTER_BOUND ( 'NONE', #873, .T. ) ;
#692 = CARTESIAN_POINT ( 'NONE',  ( 0.4000000000000002998, 0.2899999999999998690, 1.000000000000000000 ) ) ;
#693 = VECTOR ( 'NONE', #641, 1000.000000000000000 ) ;
#694 = VECTOR ( 'NONE', #196, 1000.000000000000000 ) ;
#695 = DIRECTION ( 'NONE',  ( -0.0000000000000000000, -0.0000000000000000000, -1.000000000000000000 ) ) ;
#696 = VECTOR ( 'NONE', #121, 1000.000000000000000 ) ;
#697 = EDGE_LOOP ( 'NONE', ( #659, #795, #566, #889 ) ) ;
#698 = CARTESIAN_POINT ( 'NONE',  ( 1.250000000000000000, -0.01000000000000006266, -1.000000000000000444 ) ) ;
#699 = DIRECTION ( 'NONE',  ( -1.000000000000000000, 0.0000000000000000000, 0.0000000000000000000 ) ) ;
#700 = CARTESIAN_POINT ( 'NONE',  ( -1.250000000000000000, 0.8899999999999999023, 0.0000000000000000000 ) ) ;
#701 = ADVANCED_FACE ( 'NONE', ( #717 ), #738, .F. ) ;
#702 = CARTESIAN_POINT ( 'NONE',  ( 1.250000000000000000, 0.8899999999999999023, -0.9899999999999997691 ) ) ;
#703 = ORIENTED_EDGE ( 'NONE', *, *, #319, .F. ) ;
#704 = VECTOR ( 'NONE', #118, 1000.000000000000000 ) ;
#705 = CARTESIAN_POINT ( 'NONE',  ( 1.250000000000000000, 0.2899999999999999245, -0.9900000000000004352 ) ) ;
#706 = CARTESIAN_POINT ( 'NONE',  ( -1.250000000000000222, 0.2900000000000000355, 1.000000000000000000 ) ) ;
#707 = COLOUR_RGB ( '',0.7686274509803920907, 0.7686274509803920907, 0.7686274509803920907 ) ;
#708 = ADVANCED_FACE ( 'NONE', ( #545 ), #879, .F. ) ;
#709 =( GEOMETRIC_REPRESENTATION_CONTEXT ( 3 ) GLOBAL_UNCERTAINTY_ASSIGNED_CONTEXT ( ( #791 ) ) GLOBAL_UNIT_ASSIGNED_CONTEXT ( ( #361, #283, #349 ) ) REPRESENTATION_CONTEXT ( 'NONE', 'WORKASPACE' ) );
#710 = VECTOR ( 'NONE', #288, 1000.000000000000000 ) ;
#711 = ORIENTED_EDGE ( 'NONE', *, *, #325, .F. ) ;
#712 = AXIS2_PLACEMENT_3D ( 'NONE', #599, #676, #175 ) ;
#713 =( LENGTH_UNIT ( ) NAMED_UNIT ( * ) SI_UNIT ( .MILLI., .METRE. ) );
#714 = VERTEX_POINT ( 'NONE', #238 ) ;
#715 = ORIENTED_EDGE ( 'NONE', *, *, #784, .T. ) ;
#716 = FILL_AREA_STYLE_COLOUR ( '', #905 ) ;
#717 = FACE_OUTER_BOUND ( 'NONE', #197, .T. ) ;
#718 = ADVANCED_FACE ( 'NONE', ( #768 ), #882, .F. ) ;
#719 = VECTOR ( 'NONE', #627, 1000.000000000000000 ) ;
#720 = VECTOR ( 'NONE', #851, 1000.000000000000000 ) ;
#721 = ADVANCED_FACE ( 'NONE', ( #904 ), #34, .F. ) ;
#722 = EDGE_CURVE ( 'NONE', #464, #7, #253, .T. ) ;
#723 = VERTEX_POINT ( 'NONE', #896 ) ;
#724 = ORIENTED_EDGE ( 'NONE', *, *, #424, .F. ) ;
#725 = FILL_AREA_STYLE_COLOUR ( '', #210 ) ;
#726 = EDGE_CURVE ( 'NONE', #536, #307, #164, .T. ) ;
#727 = UNCERTAINTY_MEASURE_WITH_UNIT (LENGTH_MEASURE( 1.000000000000000082E-05 ), #809, 'distance_accuracy_value', 'NONE');
#728 = PRODUCT_DEFINITION_FORMATION_WITH_SPECIFIED_SOURCE ( 'ANY', '', #22, .NOT_KNOWN. ) ;
#729 = PLANE ( 'NONE',  #888 ) ;
#730 = LINE ( 'NONE', #868, #179 ) ;
#731 = DIRECTION ( 'NONE',  ( -4.336808689942018229E-16, -0.0000000000000000000, 1.000000000000000000 ) ) ;
#732 = SURFACE_STYLE_FILL_AREA ( #218 ) ;
#733 = ORIENTED_EDGE ( 'NONE', *, *, #413, .T. ) ;
#734 = CARTESIAN_POINT ( 'NONE',  ( 0.0000000000000000000, 0.0000000000000000000, 0.0000000000000000000 ) ) ;
#735 = EDGE_CURVE ( 'NONE', #753, #112, #678, .T. ) ;
#736 = DIRECTION ( 'NONE',  ( -0.0000000000000000000, -0.0000000000000000000, -1.000000000000000000 ) ) ;
#737 = ORIENTED_EDGE ( 'NONE', *, *, #538, .F. ) ;
#738 = PLANE ( 'NONE',  #802 ) ;
#739 = ORIENTED_EDGE ( 'NONE', *, *, #348, .T. ) ;
#740 = AXIS2_PLACEMENT_3D ( 'NONE', #387, #193, #618 ) ;
#741 = DIRECTION ( 'NONE',  ( 4.336808689942018229E-16, -0.0000000000000000000, 1.000000000000000000 ) ) ;
#742 = VECTOR ( 'NONE', #304, 1000.000000000000000 ) ;
#743 = LINE ( 'NONE', #54, #782 ) ;
#744 =( LENGTH_UNIT ( ) NAMED_UNIT ( * ) SI_UNIT ( .MILLI., .METRE. ) );
#745 = EDGE_CURVE ( 'NONE', #368, #176, #295, .T. ) ;
#746 = ORIENTED_EDGE ( 'NONE', *, *, #650, .T. ) ;
#747 = FILL_AREA_STYLE ('',( #107 ) ) ;
#748 = AXIS2_PLACEMENT_3D ( 'NONE', #815, #448, #667 ) ;
#749 = PRESENTATION_LAYER_ASSIGNMENT (  '', '', ( #878 ) ) ;
#750 = DIRECTION ( 'NONE',  ( 0.0000000000000000000, 0.0000000000000000000, 1.000000000000000000 ) ) ;
#751 = EDGE_LOOP ( 'NONE', ( #600, #688, #174, #336 ) ) ;
#752 = SURFACE_STYLE_USAGE ( .BOTH. , #452 ) ;
#753 = VERTEX_POINT ( 'NONE', #244 ) ;
#754 = STYLED_ITEM ( 'NONE', ( #895 ), #412 ) ;
#755 = LINE ( 'NONE', #98, #232 ) ;
#756 = CARTESIAN_POINT ( 'NONE',  ( 0.0000000000000000000, 0.8899999999999999023, 0.9899999999999999911 ) ) ;
#757 = COLOUR_RGB ( '',0.7686274509803920907, 0.7686274509803920907, 0.7686274509803920907 ) ;
#758 = SURFACE_SIDE_STYLE ('',( #14 ) ) ;
#759 = COLOUR_RGB ( '',0.7686274509803920907, 0.7686274509803920907, 0.7686274509803920907 ) ;
#760 = FILL_AREA_STYLE_COLOUR ( '', #707 ) ;
#761 = AXIS2_PLACEMENT_3D ( 'NONE', #447, #111, #372 ) ;
#762 = SURFACE_STYLE_USAGE ( .BOTH. , #758 ) ;
#763 = DIRECTION ( 'NONE',  ( 1.000000000000000000, -0.0000000000000000000, -0.0000000000000000000 ) ) ;
#764 = CARTESIAN_POINT ( 'NONE',  ( -1.250000000000000000, 0.2899999999999999800, 0.9900000000000002132 ) ) ;
#765 = ORIENTED_EDGE ( 'NONE', *, *, #842, .F. ) ;
#766 = DIRECTION ( 'NONE',  ( -0.0000000000000000000, -1.000000000000000000, -0.0000000000000000000 ) ) ;
#767 = ORIENTED_EDGE ( 'NONE', *, *, #540, .F. ) ;
#768 = FACE_OUTER_BOUND ( 'NONE', #360, .T. ) ;
#769 = PRESENTATION_STYLE_ASSIGNMENT (( #20 ) ) ;
#770 = PLANE ( 'NONE',  #437 ) ;
#771 = DIRECTION ( 'NONE',  ( -0.0000000000000000000, -0.0000000000000000000, -1.000000000000000000 ) ) ;
#772 = STYLED_ITEM ( 'NONE', ( #354 ), #446 ) ;
#773 = DIRECTION ( 'NONE',  ( -1.000000000000000000, 0.0000000000000000000, 0.0000000000000000000 ) ) ;
#774 = CARTESIAN_POINT ( 'NONE',  ( -0.4000000000000001887, 0.2899999999999999800, 0.9900000000000002132 ) ) ;
#775 = CARTESIAN_POINT ( 'NONE',  ( -1.249999999999999778, 1.189999999999999947, 0.9900000000000002132 ) ) ;
#776 = ORIENTED_EDGE ( 'NONE', *, *, #133, .T. ) ;
#777 = ORIENTED_EDGE ( 'NONE', *, *, #926, .F. ) ;
#778 = DIRECTION ( 'NONE',  ( -1.000000000000000000, -0.0000000000000000000, -0.0000000000000000000 ) ) ;
#779 = CARTESIAN_POINT ( 'NONE',  ( -1.250000000000000000, 0.2899999999999999245, -1.000000000000000444 ) ) ;
#780 = CARTESIAN_POINT ( 'NONE',  ( -1.250000000000000222, 0.2900000000000000355, 1.000000000000000000 ) ) ;
#781 = LINE ( 'NONE', #817, #418 ) ;
#782 = VECTOR ( 'NONE', #771, 1000.000000000000000 ) ;
#783 = VECTOR ( 'NONE', #766, 1000.000000000000000 ) ;
#784 = EDGE_CURVE ( 'NONE', #474, #307, #508, .T. ) ;
#785 = SURFACE_STYLE_FILL_AREA ( #27 ) ;
#786 = CARTESIAN_POINT ( 'NONE',  ( 1.250000000000000222, -0.01000000000000000021, 1.000000000000000000 ) ) ;
#787 = DIRECTION ( 'NONE',  ( 1.000000000000000000, -0.0000000000000000000, -8.673617379884034239E-17 ) ) ;
#788 = EDGE_LOOP ( 'NONE', ( #154, #143, #59, #516 ) ) ;
#789 = SHAPE_DEFINITION_REPRESENTATION ( #431, #326 ) ;
#790 = FACE_OUTER_BOUND ( 'NONE', #375, .T. ) ;
#791 = UNCERTAINTY_MEASURE_WITH_UNIT (LENGTH_MEASURE( 1.000000000000000082E-05 ), #361, 'distance_accuracy_value', 'NONE');
#792 = FILL_AREA_STYLE ('',( #853 ) ) ;
#793 =( GEOMETRIC_REPRESENTATION_CONTEXT ( 3 ) GLOBAL_UNCERTAINTY_ASSIGNED_CONTEXT ( ( #76 ) ) GLOBAL_UNIT_ASSIGNED_CONTEXT ( ( #622, #841, #57 ) ) REPRESENTATION_CONTEXT ( 'NONE', 'WORKASPACE' ) );
#794 = ADVANCED_FACE ( 'NONE', ( #481 ), #170, .T. ) ;
#795 = ORIENTED_EDGE ( 'NONE', *, *, #66, .T. ) ;
#796 =( NAMED_UNIT ( * ) SI_UNIT ( $, .STERADIAN. ) SOLID_ANGLE_UNIT ( ) );
#797 = AXIS2_PLACEMENT_3D ( 'NONE', #312, #900, #609 ) ;
#798 = CARTESIAN_POINT ( 'NONE',  ( -0.4000000000000002998, -0.01000000000000000021, -0.9900000000000002132 ) ) ;
#799 = ADVANCED_FACE ( 'NONE', ( #691 ), #383, .F. ) ;
#800 = SURFACE_STYLE_USAGE ( .BOTH. , #214 ) ;
#801 = ORIENTED_EDGE ( 'NONE', *, *, #722, .F. ) ;
#802 = AXIS2_PLACEMENT_3D ( 'NONE', #734, #300, #161 ) ;
#803 = ORIENTED_EDGE ( 'NONE', *, *, #66, .F. ) ;
#804 = MECHANICAL_DESIGN_GEOMETRIC_PRESENTATION_REPRESENTATION (  '', ( #878 ), #182 ) ;
#805 = DIRECTION ( 'NONE',  ( -1.095153709581317675E-16, 0.0000000000000000000, -1.000000000000000000 ) ) ;
#806 = PRESENTATION_STYLE_ASSIGNMENT (( #843 ) ) ;
#807 = PLANE ( 'NONE',  #279 ) ;
#808 = LINE ( 'NONE', #422, #327 ) ;
#809 =( LENGTH_UNIT ( ) NAMED_UNIT ( * ) SI_UNIT ( .MILLI., .METRE. ) );
#810 =( GEOMETRIC_REPRESENTATION_CONTEXT ( 3 ) GLOBAL_UNCERTAINTY_ASSIGNED_CONTEXT ( ( #426 ) ) GLOBAL_UNIT_ASSIGNED_CONTEXT ( ( #607, #177, #172 ) ) REPRESENTATION_CONTEXT ( 'NONE', 'WORKASPACE' ) );
#811 =( NAMED_UNIT ( * ) PLANE_ANGLE_UNIT ( ) SI_UNIT ( $, .RADIAN. ) );
#812 = PRESENTATION_LAYER_ASSIGNMENT (  '', '', ( #284 ) ) ;
#813 = VERTEX_POINT ( 'NONE', #38 ) ;
#814 = CARTESIAN_POINT ( 'NONE',  ( -0.4000000000000002442, 0.2900000000000000355, -1.000000000000000222 ) ) ;
#815 = CARTESIAN_POINT ( 'NONE',  ( -0.4000000000000002998, -0.01000000000000000021, -0.9899999999999999911 ) ) ;
#816 = VECTOR ( 'NONE', #223, 1000.000000000000000 ) ;
#817 = CARTESIAN_POINT ( 'NONE',  ( 0.4000000000000002998, 0.0000000000000000000, -0.9899999999999999911 ) ) ;
#818 = ORIENTED_EDGE ( 'NONE', *, *, #684, .F. ) ;
#819 = DIRECTION ( 'NONE',  ( 4.336808689942018229E-16, -0.0000000000000000000, 1.000000000000000000 ) ) ;
#820 = DIRECTION ( 'NONE',  ( -0.0000000000000000000, 0.0000000000000000000, -1.000000000000000000 ) ) ;
#821 = ORIENTED_EDGE ( 'NONE', *, *, #726, .T. ) ;
#822 = DIRECTION ( 'NONE',  ( -1.000000000000000000, 0.0000000000000000000, 0.0000000000000000000 ) ) ;
#823 = ORIENTED_EDGE ( 'NONE', *, *, #484, .T. ) ;
#824 = DIRECTION ( 'NONE',  ( -0.0000000000000000000, -1.000000000000000000, -0.0000000000000000000 ) ) ;
#825 = ORIENTED_EDGE ( 'NONE', *, *, #97, .F. ) ;
#826 =( LENGTH_UNIT ( ) NAMED_UNIT ( * ) SI_UNIT ( .MILLI., .METRE. ) );
#827 = UNCERTAINTY_MEASURE_WITH_UNIT (LENGTH_MEASURE( 1.000000000000000082E-05 ), #713, 'distance_accuracy_value', 'NONE');
#828 = CARTESIAN_POINT ( 'NONE',  ( -0.4000000000000002442, 0.2900000000000000355, -0.9900000000000002132 ) ) ;
#829 = ORIENTED_EDGE ( 'NONE', *, *, #588, .T. ) ;
#830 = LINE ( 'NONE', #258, #207 ) ;
#831 =( NAMED_UNIT ( * ) SI_UNIT ( $, .STERADIAN. ) SOLID_ANGLE_UNIT ( ) );
#832 = VECTOR ( 'NONE', #822, 1000.000000000000000 ) ;
#833 = SURFACE_SIDE_STYLE ('',( #363 ) ) ;
#834 = EDGE_CURVE ( 'NONE', #235, #632, #590, .T. ) ;
#835 = VECTOR ( 'NONE', #340, 1000.000000000000000 ) ;
#836 = DIRECTION ( 'NONE',  ( -0.0000000000000000000, -0.0000000000000000000, -1.000000000000000000 ) ) ;
#837 = ORIENTED_EDGE ( 'NONE', *, *, #456, .F. ) ;
#838 = CARTESIAN_POINT ( 'NONE',  ( -1.250000000000000222, -0.01000000000000000021, 1.000000000000000000 ) ) ;
#839 =( GEOMETRIC_REPRESENTATION_CONTEXT ( 3 ) GLOBAL_UNCERTAINTY_ASSIGNED_CONTEXT ( ( #827 ) ) GLOBAL_UNIT_ASSIGNED_CONTEXT ( ( #713, #929, #489 ) ) REPRESENTATION_CONTEXT ( 'NONE', 'WORKASPACE' ) );
#840 = CARTESIAN_POINT ( 'NONE',  ( -1.249999999999999778, 1.189999999999999947, 0.9900000000000002132 ) ) ;
#841 =( NAMED_UNIT ( * ) PLANE_ANGLE_UNIT ( ) SI_UNIT ( $, .RADIAN. ) );
#842 = EDGE_CURVE ( 'NONE', #571, #52, #262, .T. ) ;
#843 = SURFACE_STYLE_USAGE ( .BOTH. , #542 ) ;
#844 = ORIENTED_EDGE ( 'NONE', *, *, #206, .F. ) ;
#845 = CARTESIAN_POINT ( 'NONE',  ( 1.250000000000000000, 0.8899999999999999023, -0.9899999999999997691 ) ) ;
#846 = DIRECTION ( 'NONE',  ( 0.0000000000000000000, 0.0000000000000000000, -1.000000000000000000 ) ) ;
#847 = VECTOR ( 'NONE', #71, 1000.000000000000000 ) ;
#848 = CARTESIAN_POINT ( 'NONE',  ( -1.250000000000000000, -0.01000000000000006266, -1.000000000000000444 ) ) ;
#849 = ORIENTED_EDGE ( 'NONE', *, *, #903, .F. ) ;
#850 = CARTESIAN_POINT ( 'NONE',  ( -0.4000000000000002998, 0.0000000000000000000, -0.9899999999999999911 ) ) ;
#851 = DIRECTION ( 'NONE',  ( 1.000000000000000000, -1.913297951445007868E-16, 0.0000000000000000000 ) ) ;
#852 = PRESENTATION_LAYER_ASSIGNMENT (  '', '', ( #754 ) ) ;
#853 = FILL_AREA_STYLE_COLOUR ( '', #519 ) ;
#854 = ORIENTED_EDGE ( 'NONE', *, *, #103, .T. ) ;
#855 = DIRECTION ( 'NONE',  ( 0.0000000000000000000, 1.000000000000000000, 0.0000000000000000000 ) ) ;
#856 = AXIS2_PLACEMENT_3D ( 'NONE', #320, #385, #450 ) ;
#857 = COLOUR_RGB ( '',0.7686274509803920907, 0.7686274509803920907, 0.7686274509803920907 ) ;
#858 = LINE ( 'NONE', #756, #680 ) ;
#859 = ADVANCED_FACE ( 'NONE', ( #612 ), #222, .F. ) ;
#860 = LINE ( 'NONE', #648, #51 ) ;
#861 = PLANE ( 'NONE',  #141 ) ;
#862 = AXIS2_PLACEMENT_3D ( 'NONE', #467, #695, #699 ) ;
#863 = ORIENTED_EDGE ( 'NONE', *, *, #624, .F. ) ;
#864 =( LENGTH_UNIT ( ) NAMED_UNIT ( * ) SI_UNIT ( .MILLI., .METRE. ) );
#865 = ADVANCED_FACE ( 'NONE', ( #790 ), #557, .F. ) ;
#866 = ORIENTED_EDGE ( 'NONE', *, *, #408, .F. ) ;
#867 = ADVANCED_FACE ( 'NONE', ( #3 ), #770, .F. ) ;
#868 = CARTESIAN_POINT ( 'NONE',  ( 0.4000000000000002998, -0.01000000000000000021, -1.000000000000000222 ) ) ;
#869 = SURFACE_STYLE_FILL_AREA ( #342 ) ;
#870 = PLANE ( 'NONE',  #466 ) ;
#871 = MECHANICAL_DESIGN_GEOMETRIC_PRESENTATION_REPRESENTATION (  '', ( #655 ), #709 ) ;
#872 = FACE_OUTER_BOUND ( 'NONE', #359, .T. ) ;
#873 = EDGE_LOOP ( 'NONE', ( #272, #195, #79, #739 ) ) ;
#874 = ADVANCED_FACE ( 'NONE', ( #309 ), #620, .F. ) ;
#875 = CARTESIAN_POINT ( 'NONE',  ( 0.4000000000000002442, 0.2900000000000000355, -1.000000000000000222 ) ) ;
#876 = FILL_AREA_STYLE ('',( #580 ) ) ;
#877 = ORIENTED_EDGE ( 'NONE', *, *, #362, .T. ) ;
#878 = STYLED_ITEM ( 'NONE', ( #113 ), #794 ) ;
#879 = PLANE ( 'NONE',  #331 ) ;
#880 = LINE ( 'NONE', #509, #581 ) ;
#881 = LINE ( 'NONE', #674, #435 ) ;
#882 = PLANE ( 'NONE',  #712 ) ;
#883 = LINE ( 'NONE', #814, #681 ) ;
#884 = CARTESIAN_POINT ( 'NONE',  ( -0.4000000000000002442, 0.2900000000000000355, -1.000000000000000222 ) ) ;
#885 = ORIENTED_EDGE ( 'NONE', *, *, #575, .F. ) ;
#886 = DIRECTION ( 'NONE',  ( 1.000000000000000000, 0.0000000000000000000, 2.551063935260010984E-16 ) ) ;
#887 = EDGE_CURVE ( 'NONE', #351, #12, #644, .T. ) ;
#888 = AXIS2_PLACEMENT_3D ( 'NONE', #567, #498, #585 ) ;
#889 = ORIENTED_EDGE ( 'NONE', *, *, #145, .F. ) ;
#890 = VERTEX_POINT ( 'NONE', #61 ) ;
#891 = PLANE ( 'NONE',  #95 ) ;
#892 = FACE_OUTER_BOUND ( 'NONE', #216, .T. ) ;
#893 = CARTESIAN_POINT ( 'NONE',  ( 1.250000000000000000, 1.189999999999999947, 0.9900000000000002132 ) ) ;
#894 = LINE ( 'NONE', #700, #311 ) ;
#895 = PRESENTATION_STYLE_ASSIGNMENT (( #914 ) ) ;
#896 = CARTESIAN_POINT ( 'NONE',  ( 0.4000000000000002998, 0.2899999999999998690, 1.000000000000000000 ) ) ;
#897 = VERTEX_POINT ( 'NONE', #850 ) ;
#898 = CARTESIAN_POINT ( 'NONE',  ( 1.250000000000000222, 0.2900000000000000355, 1.000000000000000000 ) ) ;
#899 =( NAMED_UNIT ( * ) SI_UNIT ( $, .STERADIAN. ) SOLID_ANGLE_UNIT ( ) );
#900 = DIRECTION ( 'NONE',  ( 0.0000000000000000000, -0.0000000000000000000, 1.000000000000000000 ) ) ;
#901 = ORIENTED_EDGE ( 'NONE', *, *, #842, .T. ) ;
#902 = CARTESIAN_POINT ( 'NONE',  ( -1.250000000000000000, 0.2899999999999999800, -0.9899999999999999911 ) ) ;
#903 = EDGE_CURVE ( 'NONE', #104, #168, #830, .T. ) ;
#904 = FACE_OUTER_BOUND ( 'NONE', #652, .T. ) ;
#905 = COLOUR_RGB ( '',0.7686274509803920907, 0.7686274509803920907, 0.7686274509803920907 ) ;
#906 = EDGE_CURVE ( 'NONE', #536, #897, #507, .T. ) ;
#907 = LINE ( 'NONE', #271, #637 ) ;
#908 = VERTEX_POINT ( 'NONE', #134 ) ;
#909 = MECHANICAL_DESIGN_GEOMETRIC_PRESENTATION_REPRESENTATION (  '', ( #772 ), #839 ) ;
#910 = CARTESIAN_POINT ( 'NONE',  ( -1.249999999999999778, 1.189999999999999947, -0.9899999999999997691 ) ) ;
#911 = CARTESIAN_POINT ( 'NONE',  ( 1.250000000000000222, -0.01000000000000000021, 1.000000000000000000 ) ) ;
#912 = PRODUCT_DEFINITION_CONTEXT ( 'detailed design', #416, 'design' ) ;
#913 = FILL_AREA_STYLE ('',( #394 ) ) ;
#914 = SURFACE_STYLE_USAGE ( .BOTH. , #833 ) ;
#915 = ORIENTED_EDGE ( 'NONE', *, *, #436, .F. ) ;
#916 = UNCERTAINTY_MEASURE_WITH_UNIT (LENGTH_MEASURE( 1.000000000000000082E-05 ), #744, 'distance_accuracy_value', 'NONE');
#917 = ORIENTED_EDGE ( 'NONE', *, *, #650, .F. ) ;
#918 = VECTOR ( 'NONE', #328, 1000.000000000000000 ) ;
#919 = CARTESIAN_POINT ( 'NONE',  ( -1.249999999999999778, 0.8899999999999999023, -0.9899999999999997691 ) ) ;
#920 = VECTOR ( 'NONE', #46, 1000.000000000000000 ) ;
#921 = LINE ( 'NONE', #228, #570 ) ;
#922 = VECTOR ( 'NONE', #388, 1000.000000000000000 ) ;
#923 = AXIS2_PLACEMENT_3D ( 'NONE', #353, #81, #226 ) ;
#924 =( NAMED_UNIT ( * ) PLANE_ANGLE_UNIT ( ) SI_UNIT ( $, .RADIAN. ) );
#925 = CARTESIAN_POINT ( 'NONE',  ( -0.4000000000000002998, -0.01000000000000000021, -1.000000000000000222 ) ) ;
#926 = EDGE_CURVE ( 'NONE', #235, #523, #460, .T. ) ;
#927 = CARTESIAN_POINT ( 'NONE',  ( 1.250000000000000000, 0.8899999999999999023, 0.9900000000000002132 ) ) ;
#928 = ORIENTED_EDGE ( 'NONE', *, *, #255, .F. ) ;
#929 =( NAMED_UNIT ( * ) PLANE_ANGLE_UNIT ( ) SI_UNIT ( $, .RADIAN. ) );
#930 = CARTESIAN_POINT ( 'NONE',  ( -1.249999999999999778, 0.8899999999999999023, -0.9899999999999997691 ) ) ;
#931 = VERTEX_POINT ( 'NONE', #840 ) ;
#932 = ADVANCED_FACE ( 'NONE', ( #49 ), #629, .F. ) ;
#933 = MECHANICAL_DESIGN_GEOMETRIC_PRESENTATION_REPRESENTATION (  '', ( #675 ), #303 ) ;
#934 = VECTOR ( 'NONE', #552, 1000.000000000000000 ) ;
#935 = PRESENTATION_STYLE_ASSIGNMENT (( #294 ) ) ;
#936 = UNCERTAINTY_MEASURE_WITH_UNIT (LENGTH_MEASURE( 1.000000000000000082E-05 ), #122, 'distance_accuracy_value', 'NONE');
#937 = CARTESIAN_POINT ( 'NONE',  ( 1.209453867849583197, 0.6913653303760438629, 0.9494538678495834105 ) ) ;
#938 = ORIENTED_EDGE ( 'NONE', *, *, #5, .T. ) ;
ENDSEC;
END-ISO-10303-21;
